<?xml version="1.0" encoding="UTF-8" standalone="no"?>
<!DOCTYPE svg PUBLIC "-//W3C//DTD SVG 1.1//EN"
 "http://www.w3.org/Graphics/SVG/1.1/DTD/svg11.dtd">
<!-- Generated by graphviz version 2.36.0 (20140111.2315)
 -->
<!-- Title: Schema Pages: 1 -->
<svg width="206pt" height="78pt"
 viewBox="0.00 0.00 206.00 78.00" xmlns="http://www.w3.org/2000/svg" xmlns:xlink="http://www.w3.org/1999/xlink">
<g id="graph0" class="graph" transform="scale(1 1) rotate(0) translate(4 74)">
<title>Schema</title>
<polygon fill="white" stroke="none" points="-4,4 -4,-74 202,-74 202,4 -4,4"/>
<!-- first&#45;name -->
<g id="node1" class="node"><title>first&#45;name</title>
<polygon fill="none" stroke="black" points="8,-44 8,-65 102,-65 102,-44 8,-44"/>
<text text-anchor="start" x="44.5" y="-50.3" font-family="Times,serif" font-size="14.00">343</text>
<polygon fill="none" stroke="black" points="8,-24 8,-44 102,-44 102,-24 8,-24"/>
<text text-anchor="start" x="11.0654" y="-29.8" font-family="Times,serif" font-size="14.00">:user/first&#45;name</text>
<polygon fill="none" stroke="black" points="8,-4 8,-24 102,-24 102,-4 8,-4"/>
<text text-anchor="start" x="42.1724" y="-9.8" font-family="Times,serif" font-size="14.00">felix</text>
</g>
<!-- datom -->
<g id="node2" class="node"><title>datom</title>
<polygon fill="none" stroke="black" points="136,-44 136,-65 190,-65 190,-44 136,-44"/>
<text text-anchor="start" x="139.283" y="-50.3" font-family="Times,serif" font-size="14.00">entity&#45;id</text>
<polygon fill="none" stroke="black" points="136,-24 136,-44 190,-44 190,-24 136,-24"/>
<text text-anchor="start" x="139.676" y="-29.8" font-family="Times,serif" font-size="14.00">attribute</text>
<polygon fill="none" stroke="black" points="136,-4 136,-24 190,-24 190,-4 136,-4"/>
<text text-anchor="start" x="147.841" y="-9.8" font-family="Times,serif" font-size="14.00">value</text>
</g>
</g>
</svg>
