<?xml version="1.0" encoding="UTF-8" standalone="no"?>
<!DOCTYPE svg PUBLIC "-//W3C//DTD SVG 1.1//EN"
 "http://www.w3.org/Graphics/SVG/1.1/DTD/svg11.dtd">
<!-- Generated by graphviz version 2.36.0 (20140111.2315)
 -->
<!-- Title: Schema Pages: 1 -->
<svg width="434pt" height="308pt"
 viewBox="0.00 0.00 434.00 308.00" xmlns="http://www.w3.org/2000/svg" xmlns:xlink="http://www.w3.org/1999/xlink">
<g id="graph0" class="graph" transform="scale(1 1) rotate(0) translate(4 304)">
<title>Schema</title>
<polygon fill="white" stroke="none" points="-4,4 -4,-304 430,-304 430,4 -4,4"/>
<g id="clust1" class="cluster"><title>cluster_1</title>
<polygon fill="none" stroke="black" points="8,-8 8,-292 418,-292 418,-8 8,-8"/>
<text text-anchor="middle" x="213" y="-276.8" font-family="Times,serif" font-size="14.00">:db.part/db</text>
</g>
<g id="clust2" class="cluster"><title>cluster_0</title>
<polygon fill="none" stroke="black" points="16,-114 16,-262 410,-262 410,-114 16,-114"/>
<text text-anchor="middle" x="213" y="-246.8" font-family="Times,serif" font-size="14.00">first&#45;name attribute</text>
</g>
<!-- first&#45;name&#45;ident -->
<g id="node1" class="node"><title>first&#45;name&#45;ident</title>
<polygon fill="none" stroke="black" points="300,-206 300,-227 394,-227 394,-206 300,-206"/>
<text text-anchor="start" x="340" y="-212.3" font-family="Times,serif" font-size="14.00" fill="red">23</text>
<polygon fill="none" stroke="black" points="300,-186 300,-206 394,-206 394,-186 300,-186"/>
<text text-anchor="start" x="322.114" y="-191.8" font-family="Times,serif" font-size="14.00">:db/ident</text>
<polygon fill="none" stroke="black" points="300,-166 300,-186 394,-186 394,-166 300,-166"/>
<text text-anchor="start" x="303.065" y="-171.8" font-family="Times,serif" font-size="14.00">:user/first&#45;name</text>
<polygon fill="none" stroke="black" points="300,-146 300,-166 394,-166 394,-146 300,-146"/>
<text text-anchor="start" x="333" y="-151.8" font-family="Times,serif" font-size="14.00">1244</text>
<polygon fill="none" stroke="black" points="300,-126 300,-146 394,-146 394,-126 300,-126"/>
<text text-anchor="start" x="336.893" y="-131.8" font-family="Times,serif" font-size="14.00">add</text>
</g>
<!-- attr23 -->
<g id="node4" class="node"><title>attr23</title>
<polygon fill="none" stroke="black" points="154,-60 154,-81 267,-81 267,-60 154,-60"/>
<text text-anchor="start" x="207" y="-66.3" font-family="Times,serif" font-size="14.00">0</text>
<polygon fill="none" stroke="black" points="154,-40 154,-60 267,-60 267,-40 154,-40"/>
<text text-anchor="start" x="157.426" y="-45.8" font-family="Times,serif" font-size="14.00">:db.install/attribute</text>
<polygon fill="none" stroke="black" points="154,-20 154,-40 267,-40 267,-20 154,-20"/>
<text text-anchor="start" x="203.5" y="-25.8" font-family="Times,serif" font-size="14.00" fill="red">23</text>
</g>
<!-- first&#45;name&#45;ident&#45;&gt;attr23 -->
<g id="edge1" class="edge"><title>first&#45;name&#45;ident&#45;&gt;attr23</title>
<path fill="none" stroke="black" d="M292.06,-122.333C289.013,-119.496 285.979,-116.703 283,-114 275.161,-106.888 266.707,-99.4793 258.428,-92.3613"/>
<polygon fill="black" stroke="black" points="260.446,-89.4818 250.57,-85.6451 255.898,-94.803 260.446,-89.4818"/>
</g>
<!-- first&#45;name&#45;cardinality -->
<g id="node2" class="node"><title>first&#45;name&#45;cardinality</title>
<polygon fill="none" stroke="black" points="154,-206 154,-227 266,-227 266,-206 154,-206"/>
<text text-anchor="start" x="203" y="-212.3" font-family="Times,serif" font-size="14.00" fill="red">23</text>
<polygon fill="none" stroke="black" points="154,-186 154,-206 266,-206 266,-186 154,-186"/>
<text text-anchor="start" x="169.179" y="-191.8" font-family="Times,serif" font-size="14.00">:db/cardinality</text>
<polygon fill="none" stroke="black" points="154,-166 154,-186 266,-186 266,-166 154,-166"/>
<text text-anchor="start" x="157.322" y="-171.8" font-family="Times,serif" font-size="14.00">:db.cardinality/one</text>
<polygon fill="none" stroke="black" points="154,-146 154,-166 266,-166 266,-146 154,-146"/>
<text text-anchor="start" x="196" y="-151.8" font-family="Times,serif" font-size="14.00">1244</text>
<polygon fill="none" stroke="black" points="154,-126 154,-146 266,-146 266,-126 154,-126"/>
<text text-anchor="start" x="199.893" y="-131.8" font-family="Times,serif" font-size="14.00">add</text>
</g>
<!-- first&#45;name&#45;cardinality&#45;&gt;attr23 -->
<g id="edge2" class="edge"><title>first&#45;name&#45;cardinality&#45;&gt;attr23</title>
<path fill="none" stroke="black" d="M210,-122.333C210,-113.492 210,-104.42 210,-95.8549"/>
<polygon fill="black" stroke="black" points="213.5,-95.7082 210,-85.7082 206.5,-95.7083 213.5,-95.7082"/>
</g>
<!-- first&#45;name&#45;type -->
<g id="node3" class="node"><title>first&#45;name&#45;type</title>
<polygon fill="none" stroke="black" points="32,-206 32,-227 120,-227 120,-206 32,-206"/>
<text text-anchor="start" x="69" y="-212.3" font-family="Times,serif" font-size="14.00" fill="red">23</text>
<polygon fill="none" stroke="black" points="32,-186 32,-206 120,-206 120,-186 32,-186"/>
<text text-anchor="start" x="36.0576" y="-191.8" font-family="Times,serif" font-size="14.00">:db/valueType</text>
<polygon fill="none" stroke="black" points="32,-166 32,-186 120,-186 120,-166 32,-166"/>
<text text-anchor="start" x="35.3638" y="-171.8" font-family="Times,serif" font-size="14.00">:db.type/string</text>
<polygon fill="none" stroke="black" points="32,-146 32,-166 120,-166 120,-146 32,-146"/>
<text text-anchor="start" x="62" y="-151.8" font-family="Times,serif" font-size="14.00">1244</text>
<polygon fill="none" stroke="black" points="32,-126 32,-146 120,-146 120,-126 32,-126"/>
<text text-anchor="start" x="65.8931" y="-131.8" font-family="Times,serif" font-size="14.00">add</text>
</g>
<!-- first&#45;name&#45;type&#45;&gt;attr23 -->
<g id="edge3" class="edge"><title>first&#45;name&#45;type&#45;&gt;attr23</title>
<path fill="none" stroke="black" d="M128.276,-122.261C131.203,-119.442 134.124,-116.673 137,-114 144.661,-106.88 152.964,-99.5161 161.131,-92.4578"/>
<polygon fill="black" stroke="black" points="163.581,-94.968 168.895,-85.8022 159.025,-89.6536 163.581,-94.968"/>
</g>
</g>
</svg>
