<?xml version="1.0" encoding="UTF-8" standalone="no"?>
<!DOCTYPE svg PUBLIC "-//W3C//DTD SVG 1.1//EN"
 "http://www.w3.org/Graphics/SVG/1.1/DTD/svg11.dtd">
<!-- Generated by graphviz version 2.36.0 (20140111.2315)
 -->
<!-- Title: Schema Pages: 1 -->
<svg width="235pt" height="118pt"
 viewBox="0.00 0.00 235.00 118.00" xmlns="http://www.w3.org/2000/svg" xmlns:xlink="http://www.w3.org/1999/xlink">
<g id="graph0" class="graph" transform="scale(1 1) rotate(0) translate(4 114)">
<title>Schema</title>
<polygon fill="white" stroke="none" points="-4,4 -4,-114 231,-114 231,4 -4,4"/>
<!-- first&#45;name -->
<g id="node1" class="node"><title>first&#45;name</title>
<polygon fill="none" stroke="black" points="8,-84 8,-105 102,-105 102,-84 8,-84"/>
<text text-anchor="start" x="44.5" y="-90.3" font-family="Times,serif" font-size="14.00">343</text>
<polygon fill="none" stroke="black" points="8,-64 8,-84 102,-84 102,-64 8,-64"/>
<text text-anchor="start" x="11.0654" y="-69.8" font-family="Times,serif" font-size="14.00">:user/first&#45;name</text>
<polygon fill="none" stroke="black" points="8,-44 8,-64 102,-64 102,-44 8,-44"/>
<text text-anchor="start" x="42.1724" y="-49.8" font-family="Times,serif" font-size="14.00">felix</text>
<polygon fill="none" stroke="black" points="8,-24 8,-44 102,-44 102,-24 8,-24"/>
<text text-anchor="start" x="44.5" y="-29.8" font-family="Times,serif" font-size="14.00">213</text>
<polygon fill="none" stroke="black" points="8,-4 8,-24 102,-24 102,-4 8,-4"/>
<text text-anchor="start" x="44.8931" y="-9.8" font-family="Times,serif" font-size="14.00">add</text>
</g>
<!-- datom -->
<g id="node2" class="node"><title>datom</title>
<polygon fill="none" stroke="black" points="137,-84 137,-105 220,-105 220,-84 137,-84"/>
<text text-anchor="start" x="154.783" y="-90.3" font-family="Times,serif" font-size="14.00">entity&#45;id</text>
<polygon fill="none" stroke="black" points="137,-64 137,-84 220,-84 220,-64 137,-64"/>
<text text-anchor="start" x="155.176" y="-69.8" font-family="Times,serif" font-size="14.00">attribute</text>
<polygon fill="none" stroke="black" points="137,-44 137,-64 220,-64 220,-44 137,-44"/>
<text text-anchor="start" x="163.341" y="-49.8" font-family="Times,serif" font-size="14.00">value</text>
<polygon fill="none" stroke="black" points="137,-24 137,-44 220,-44 220,-24 137,-24"/>
<text text-anchor="start" x="140.014" y="-29.8" font-family="Times,serif" font-size="14.00">transaction&#45;id</text>
<polygon fill="none" stroke="black" points="137,-4 137,-24 220,-24 220,-4 137,-4"/>
<text text-anchor="start" x="148.576" y="-9.8" font-family="Times,serif" font-size="14.00">add/retract</text>
</g>
</g>
</svg>
