<?xml version="1.0" encoding="UTF-8" standalone="no"?>
<!DOCTYPE svg PUBLIC "-//W3C//DTD SVG 1.1//EN"
 "http://www.w3.org/Graphics/SVG/1.1/DTD/svg11.dtd">
<!-- Generated by graphviz version 2.36.0 (20140111.2315)
 -->
<!-- Title: %3 Pages: 1 -->
<svg width="106pt" height="140pt"
 viewBox="0.00 0.00 106.00 140.00" xmlns="http://www.w3.org/2000/svg" xmlns:xlink="http://www.w3.org/1999/xlink">
<g id="graph0" class="graph" transform="scale(1 1) rotate(0) translate(4 136)">
<title>%3</title>
<polygon fill="white" stroke="none" points="-4,4 -4,-136 102,-136 102,4 -4,4"/>
<text text-anchor="middle" x="49" y="-6.8" font-family="Times,serif" font-size="14.00">Datom</text>
<!-- datom -->
<g id="node1" class="node"><title>datom</title>
<polygon fill="none" stroke="black" points="8,-106 8,-127 91,-127 91,-106 8,-106"/>
<text text-anchor="start" x="25.7827" y="-112.3" font-family="Times,serif" font-size="14.00">entity&#45;id</text>
<polygon fill="none" stroke="black" points="8,-86 8,-106 91,-106 91,-86 8,-86"/>
<text text-anchor="start" x="26.1758" y="-91.8" font-family="Times,serif" font-size="14.00">attribute</text>
<polygon fill="none" stroke="black" points="8,-66 8,-86 91,-86 91,-66 8,-66"/>
<text text-anchor="start" x="34.3413" y="-71.8" font-family="Times,serif" font-size="14.00">value</text>
<polygon fill="none" stroke="black" points="8,-46 8,-66 91,-66 91,-46 8,-46"/>
<text text-anchor="start" x="11.0137" y="-51.8" font-family="Times,serif" font-size="14.00">transaction&#45;id</text>
<polygon fill="none" stroke="black" points="8,-26 8,-46 91,-46 91,-26 8,-26"/>
<text text-anchor="start" x="19.5757" y="-31.8" font-family="Times,serif" font-size="14.00">add/retract</text>
</g>
</g>
</svg>
