<?xml version="1.0" encoding="UTF-8" standalone="no"?>
<!DOCTYPE svg PUBLIC "-//W3C//DTD SVG 1.1//EN"
 "http://www.w3.org/Graphics/SVG/1.1/DTD/svg11.dtd">
<!-- Generated by graphviz version 2.36.0 (20140111.2315)
 -->
<!-- Title: Schema Pages: 1 -->
<svg width="118pt" height="152pt"
 viewBox="0.00 0.00 118.00 152.00" xmlns="http://www.w3.org/2000/svg" xmlns:xlink="http://www.w3.org/1999/xlink">
<g id="graph0" class="graph" transform="scale(1 1) rotate(0) translate(4 148)">
<title>Schema</title>
<polygon fill="white" stroke="none" points="-4,4 -4,-148 114,-148 114,4 -4,4"/>
<!-- first&#45;name -->
<g id="node1" class="node"><title>first&#45;name</title>
<polygon fill="none" stroke="black" points="8,-118 8,-139 102,-139 102,-118 8,-118"/>
<text text-anchor="start" x="44.5" y="-124.3" font-family="Times,serif" font-size="14.00">343</text>
<polygon fill="none" stroke="black" points="8,-98 8,-118 102,-118 102,-98 8,-98"/>
<text text-anchor="start" x="11.0654" y="-103.8" font-family="Times,serif" font-size="14.00">:user/first&#45;name</text>
<polygon fill="none" stroke="black" points="8,-78 8,-98 102,-98 102,-78 8,-78"/>
<text text-anchor="start" x="42.1724" y="-83.8" font-family="Times,serif" font-size="14.00">felix</text>
</g>
<!-- db -->
<g id="node2" class="node"><title>db</title>
<ellipse fill="none" stroke="black" cx="55" cy="-19" rx="18.4268" ry="18.9007"/>
<text text-anchor="middle" x="55" y="-14.8" font-family="Times,serif" font-size="14.00">db</text>
</g>
<!-- first&#45;name&#45;&gt;db -->
<g id="edge1" class="edge"><title>first&#45;name&#45;&gt;db</title>
<path fill="none" stroke="black" d="M55,-74.4799C55,-65.9692 55,-56.9031 55,-48.6585"/>
<polygon fill="black" stroke="black" points="58.5001,-48.4091 55,-38.4092 51.5001,-48.4092 58.5001,-48.4091"/>
</g>
</g>
</svg>
