<?xml version="1.0" encoding="UTF-8" standalone="no"?>
<!DOCTYPE svg PUBLIC "-//W3C//DTD SVG 1.1//EN"
 "http://www.w3.org/Graphics/SVG/1.1/DTD/svg11.dtd">
<!-- Generated by graphviz version 2.36.0 (20140111.2315)
 -->
<!-- Title: Schema Pages: 1 -->
<svg width="170pt" height="278pt"
 viewBox="0.00 0.00 170.00 278.00" xmlns="http://www.w3.org/2000/svg" xmlns:xlink="http://www.w3.org/1999/xlink">
<g id="graph0" class="graph" transform="scale(1 1) rotate(0) translate(4 274)">
<title>Schema</title>
<polygon fill="white" stroke="none" points="-4,4 -4,-274 166,-274 166,4 -4,4"/>
<g id="clust1" class="cluster"><title>cluster_0</title>
<polygon fill="none" stroke="black" points="8,-8 8,-262 154,-262 154,-8 8,-8"/>
<text text-anchor="middle" x="81" y="-246.8" font-family="Times,serif" font-size="14.00">:db.part/db</text>
</g>
<!-- first&#45;name&#45;ident -->
<g id="node1" class="node"><title>first&#45;name&#45;ident</title>
<polygon fill="none" stroke="black" points="34,-206 34,-227 128,-227 128,-206 34,-206"/>
<text text-anchor="start" x="74" y="-212.3" font-family="Times,serif" font-size="14.00" fill="red">23</text>
<polygon fill="none" stroke="black" points="34,-186 34,-206 128,-206 128,-186 34,-186"/>
<text text-anchor="start" x="56.1138" y="-191.8" font-family="Times,serif" font-size="14.00">:db/ident</text>
<polygon fill="none" stroke="black" points="34,-166 34,-186 128,-186 128,-166 34,-166"/>
<text text-anchor="start" x="37.0654" y="-171.8" font-family="Times,serif" font-size="14.00">:user/first&#45;name</text>
<polygon fill="none" stroke="black" points="34,-146 34,-166 128,-166 128,-146 34,-146"/>
<text text-anchor="start" x="67" y="-151.8" font-family="Times,serif" font-size="14.00">1244</text>
<polygon fill="none" stroke="black" points="34,-126 34,-146 128,-146 128,-126 34,-126"/>
<text text-anchor="start" x="70.8931" y="-131.8" font-family="Times,serif" font-size="14.00">add</text>
</g>
<!-- attr23 -->
<g id="node2" class="node"><title>attr23</title>
<polygon fill="none" stroke="black" points="25,-60 25,-81 138,-81 138,-60 25,-60"/>
<text text-anchor="start" x="78" y="-66.3" font-family="Times,serif" font-size="14.00">0</text>
<polygon fill="none" stroke="black" points="25,-40 25,-60 138,-60 138,-40 25,-40"/>
<text text-anchor="start" x="28.4258" y="-45.8" font-family="Times,serif" font-size="14.00">:db.install/attribute</text>
<polygon fill="none" stroke="black" points="25,-20 25,-40 138,-40 138,-20 25,-20"/>
<text text-anchor="start" x="74.5" y="-25.8" font-family="Times,serif" font-size="14.00" fill="red">23</text>
</g>
<!-- first&#45;name&#45;ident&#45;&gt;attr23 -->
<g id="edge1" class="edge"><title>first&#45;name&#45;ident&#45;&gt;attr23</title>
<path fill="none" stroke="black" d="M81,-122.333C81,-113.492 81,-104.42 81,-95.8549"/>
<polygon fill="black" stroke="black" points="84.5001,-95.7082 81,-85.7082 77.5001,-95.7083 84.5001,-95.7082"/>
</g>
</g>
</svg>
