<?xml version="1.0" encoding="UTF-8" standalone="no"?>
<!DOCTYPE svg PUBLIC "-//W3C//DTD SVG 1.1//EN"
 "http://www.w3.org/Graphics/SVG/1.1/DTD/svg11.dtd">
<!-- Generated by graphviz version 2.36.0 (20140111.2315)
 -->
<!-- Title: Schema Pages: 1 -->
<svg width="1607pt" height="502pt"
 viewBox="0.00 0.00 1607.00 502.00" xmlns="http://www.w3.org/2000/svg" xmlns:xlink="http://www.w3.org/1999/xlink">
<g id="graph0" class="graph" transform="scale(1 1) rotate(0) translate(4 498)">
<title>Schema</title>
<polygon fill="white" stroke="none" points="-4,4 -4,-498 1603,-498 1603,4 -4,4"/>
<g id="clust1" class="cluster"><title>cluster_1</title>
<polygon fill="none" stroke="black" points="8,-8 8,-292 1249,-292 1249,-8 8,-8"/>
<text text-anchor="middle" x="628.5" y="-276.8" font-family="Times,serif" font-size="14.00">:db.part/db</text>
</g>
<g id="clust2" class="cluster"><title>cluster_0</title>
<polygon fill="none" stroke="black" points="847,-114 847,-262 1241,-262 1241,-114 847,-114"/>
<text text-anchor="middle" x="1044" y="-246.8" font-family="Times,serif" font-size="14.00">first&#45;name attribute</text>
</g>
<g id="clust3" class="cluster"><title>cluster_2</title>
<polygon fill="none" stroke="black" points="411,-114 411,-262 839,-262 839,-114 411,-114"/>
<text text-anchor="middle" x="625" y="-246.8" font-family="Times,serif" font-size="14.00">last&#45;name attribute</text>
</g>
<g id="clust4" class="cluster"><title>cluster_3</title>
<polygon fill="none" stroke="black" points="16,-114 16,-262 403,-262 403,-114 16,-114"/>
<text text-anchor="middle" x="209.5" y="-246.8" font-family="Times,serif" font-size="14.00">email attribute</text>
</g>
<g id="clust5" class="cluster"><title>cluster_11</title>
<polygon fill="none" stroke="black" points="1195,-300 1195,-486 1591,-486 1591,-300 1195,-300"/>
<text text-anchor="middle" x="1393" y="-470.8" font-family="Times,serif" font-size="14.00">db.part/user</text>
</g>
<g id="clust6" class="cluster"><title>cluster_13</title>
<polygon fill="none" stroke="black" points="1203,-308 1203,-456 1583,-456 1583,-308 1203,-308"/>
<text text-anchor="middle" x="1393" y="-440.8" font-family="Times,serif" font-size="14.00">Transaction 32142</text>
</g>
<g id="clust7" class="cluster"><title>cluster_99</title>
<path fill="none" stroke="grey" d="M1269,-146C1269,-146 1515,-146 1515,-146 1521,-146 1527,-152 1527,-158 1527,-158 1527,-218 1527,-218 1527,-224 1521,-230 1515,-230 1515,-230 1269,-230 1269,-230 1263,-230 1257,-224 1257,-218 1257,-218 1257,-158 1257,-158 1257,-152 1263,-146 1269,-146"/>
<text text-anchor="middle" x="1392" y="-214.8" font-family="Times,serif" font-size="14.00">Entity 2132</text>
</g>
<!-- first&#45;name&#45;ident -->
<g id="node1" class="node"><title>first&#45;name&#45;ident</title>
<polygon fill="none" stroke="black" points="1131,-206 1131,-227 1225,-227 1225,-206 1131,-206"/>
<text text-anchor="start" x="1171" y="-212.3" font-family="Times,serif" font-size="14.00">23</text>
<polygon fill="none" stroke="black" points="1131,-186 1131,-206 1225,-206 1225,-186 1131,-186"/>
<text text-anchor="start" x="1153.11" y="-191.8" font-family="Times,serif" font-size="14.00">:db/ident</text>
<polygon fill="none" stroke="black" points="1131,-166 1131,-186 1225,-186 1225,-166 1131,-166"/>
<text text-anchor="start" x="1134.07" y="-171.8" font-family="Times,serif" font-size="14.00">:user/first&#45;name</text>
<polygon fill="none" stroke="black" points="1131,-146 1131,-166 1225,-166 1225,-146 1131,-146"/>
<text text-anchor="start" x="1164" y="-151.8" font-family="Times,serif" font-size="14.00">1244</text>
<polygon fill="none" stroke="black" points="1131,-126 1131,-146 1225,-146 1225,-126 1131,-126"/>
<text text-anchor="start" x="1167.89" y="-131.8" font-family="Times,serif" font-size="14.00">add</text>
</g>
<!-- attr23 -->
<g id="node10" class="node"><title>attr23</title>
<polygon fill="none" stroke="black" points="1052,-60 1052,-81 1165,-81 1165,-60 1052,-60"/>
<text text-anchor="start" x="1105" y="-66.3" font-family="Times,serif" font-size="14.00">0</text>
<polygon fill="none" stroke="black" points="1052,-40 1052,-60 1165,-60 1165,-40 1052,-40"/>
<text text-anchor="start" x="1055.43" y="-45.8" font-family="Times,serif" font-size="14.00">:db.install/attribute</text>
<polygon fill="none" stroke="black" points="1052,-20 1052,-40 1165,-40 1165,-20 1052,-20"/>
<text text-anchor="start" x="1101.5" y="-25.8" font-family="Times,serif" font-size="14.00">23</text>
</g>
<!-- first&#45;name&#45;ident&#45;&gt;attr23 -->
<g id="edge1" class="edge"><title>first&#45;name&#45;ident&#45;&gt;attr23</title>
<path fill="none" stroke="black" d="M1147.7,-122.333C1142.44,-113.006 1137.03,-103.422 1131.96,-94.4478"/>
<polygon fill="black" stroke="black" points="1134.99,-92.6959 1127.03,-85.7082 1128.9,-96.1371 1134.99,-92.6959"/>
</g>
<!-- first&#45;name&#45;cardinality -->
<g id="node2" class="node"><title>first&#45;name&#45;cardinality</title>
<polygon fill="none" stroke="black" points="985,-206 985,-227 1097,-227 1097,-206 985,-206"/>
<text text-anchor="start" x="1034" y="-212.3" font-family="Times,serif" font-size="14.00">23</text>
<polygon fill="none" stroke="black" points="985,-186 985,-206 1097,-206 1097,-186 985,-186"/>
<text text-anchor="start" x="1000.18" y="-191.8" font-family="Times,serif" font-size="14.00">:db/cardinality</text>
<polygon fill="none" stroke="black" points="985,-166 985,-186 1097,-186 1097,-166 985,-166"/>
<text text-anchor="start" x="988.322" y="-171.8" font-family="Times,serif" font-size="14.00">:db.cardinality/one</text>
<polygon fill="none" stroke="black" points="985,-146 985,-166 1097,-166 1097,-146 985,-146"/>
<text text-anchor="start" x="1027" y="-151.8" font-family="Times,serif" font-size="14.00">1244</text>
<polygon fill="none" stroke="black" points="985,-126 985,-146 1097,-146 1097,-126 985,-126"/>
<text text-anchor="start" x="1030.89" y="-131.8" font-family="Times,serif" font-size="14.00">add</text>
</g>
<!-- first&#45;name&#45;cardinality&#45;&gt;attr23 -->
<g id="edge2" class="edge"><title>first&#45;name&#45;cardinality&#45;&gt;attr23</title>
<path fill="none" stroke="black" d="M1070,-122.333C1074.98,-113.103 1080.11,-103.622 1084.91,-94.7284"/>
<polygon fill="black" stroke="black" points="1088.11,-96.1699 1089.79,-85.7082 1081.95,-92.8423 1088.11,-96.1699"/>
</g>
<!-- first&#45;name&#45;type -->
<g id="node3" class="node"><title>first&#45;name&#45;type</title>
<polygon fill="none" stroke="black" points="863,-206 863,-227 951,-227 951,-206 863,-206"/>
<text text-anchor="start" x="900" y="-212.3" font-family="Times,serif" font-size="14.00">23</text>
<polygon fill="none" stroke="black" points="863,-186 863,-206 951,-206 951,-186 863,-186"/>
<text text-anchor="start" x="867.058" y="-191.8" font-family="Times,serif" font-size="14.00">:db/valueType</text>
<polygon fill="none" stroke="black" points="863,-166 863,-186 951,-186 951,-166 863,-166"/>
<text text-anchor="start" x="866.364" y="-171.8" font-family="Times,serif" font-size="14.00">:db.type/string</text>
<polygon fill="none" stroke="black" points="863,-146 863,-166 951,-166 951,-146 863,-146"/>
<text text-anchor="start" x="893" y="-151.8" font-family="Times,serif" font-size="14.00">1244</text>
<polygon fill="none" stroke="black" points="863,-126 863,-146 951,-146 951,-126 863,-126"/>
<text text-anchor="start" x="896.893" y="-131.8" font-family="Times,serif" font-size="14.00">add</text>
</g>
<!-- first&#45;name&#45;type&#45;&gt;attr23 -->
<g id="edge3" class="edge"><title>first&#45;name&#45;type&#45;&gt;attr23</title>
<path fill="none" stroke="black" d="M956.973,-122.381C960.585,-119.402 964.275,-116.577 968,-114 988.18,-100.039 1012.01,-88.0847 1034.24,-78.5052"/>
<polygon fill="black" stroke="black" points="1035.79,-81.6501 1043.65,-74.5462 1033.07,-75.1978 1035.79,-81.6501"/>
</g>
<!-- last&#45;name&#45;ident -->
<g id="node4" class="node"><title>last&#45;name&#45;ident</title>
<polygon fill="none" stroke="black" points="729,-206 729,-227 823,-227 823,-206 729,-206"/>
<text text-anchor="start" x="769" y="-212.3" font-family="Times,serif" font-size="14.00">24</text>
<polygon fill="none" stroke="black" points="729,-186 729,-206 823,-206 823,-186 729,-186"/>
<text text-anchor="start" x="751.114" y="-191.8" font-family="Times,serif" font-size="14.00">:db/ident</text>
<polygon fill="none" stroke="black" points="729,-166 729,-186 823,-186 823,-166 729,-166"/>
<text text-anchor="start" x="732.065" y="-171.8" font-family="Times,serif" font-size="14.00">:user/first&#45;name</text>
<polygon fill="none" stroke="black" points="729,-146 729,-166 823,-166 823,-146 729,-146"/>
<text text-anchor="start" x="762" y="-151.8" font-family="Times,serif" font-size="14.00">1244</text>
<polygon fill="none" stroke="black" points="729,-126 729,-146 823,-146 823,-126 729,-126"/>
<text text-anchor="start" x="765.893" y="-131.8" font-family="Times,serif" font-size="14.00">add</text>
</g>
<!-- attr24 -->
<g id="node11" class="node"><title>attr24</title>
<polygon fill="none" stroke="black" points="651,-60 651,-81 764,-81 764,-60 651,-60"/>
<text text-anchor="start" x="704" y="-66.3" font-family="Times,serif" font-size="14.00">0</text>
<polygon fill="none" stroke="black" points="651,-40 651,-60 764,-60 764,-40 651,-40"/>
<text text-anchor="start" x="654.426" y="-45.8" font-family="Times,serif" font-size="14.00">:db.install/attribute</text>
<polygon fill="none" stroke="black" points="651,-20 651,-40 764,-40 764,-20 651,-20"/>
<text text-anchor="start" x="700.5" y="-25.8" font-family="Times,serif" font-size="14.00">24</text>
</g>
<!-- last&#45;name&#45;ident&#45;&gt;attr24 -->
<g id="edge4" class="edge"><title>last&#45;name&#45;ident&#45;&gt;attr24</title>
<path fill="none" stroke="black" d="M746.137,-122.333C740.947,-113.006 735.614,-103.422 730.62,-94.4478"/>
<polygon fill="black" stroke="black" points="733.678,-92.7446 725.757,-85.7082 727.561,-96.1484 733.678,-92.7446"/>
</g>
<!-- last&#45;name&#45;cardinality -->
<g id="node5" class="node"><title>last&#45;name&#45;cardinality</title>
<polygon fill="none" stroke="black" points="583,-206 583,-227 695,-227 695,-206 583,-206"/>
<text text-anchor="start" x="632" y="-212.3" font-family="Times,serif" font-size="14.00">24</text>
<polygon fill="none" stroke="black" points="583,-186 583,-206 695,-206 695,-186 583,-186"/>
<text text-anchor="start" x="598.179" y="-191.8" font-family="Times,serif" font-size="14.00">:db/cardinality</text>
<polygon fill="none" stroke="black" points="583,-166 583,-186 695,-186 695,-166 583,-166"/>
<text text-anchor="start" x="586.322" y="-171.8" font-family="Times,serif" font-size="14.00">:db.cardinality/one</text>
<polygon fill="none" stroke="black" points="583,-146 583,-166 695,-166 695,-146 583,-146"/>
<text text-anchor="start" x="625" y="-151.8" font-family="Times,serif" font-size="14.00">1244</text>
<polygon fill="none" stroke="black" points="583,-126 583,-146 695,-146 695,-126 583,-126"/>
<text text-anchor="start" x="628.893" y="-131.8" font-family="Times,serif" font-size="14.00">add</text>
</g>
<!-- last&#45;name&#45;cardinality&#45;&gt;attr24 -->
<g id="edge5" class="edge"><title>last&#45;name&#45;cardinality&#45;&gt;attr24</title>
<path fill="none" stroke="black" d="M668.43,-122.333C673.492,-113.103 678.691,-103.622 683.568,-94.7284"/>
<polygon fill="black" stroke="black" points="686.775,-96.1593 688.515,-85.7082 680.638,-92.7934 686.775,-96.1593"/>
</g>
<!-- last&#45;name&#45;type -->
<g id="node6" class="node"><title>last&#45;name&#45;type</title>
<polygon fill="none" stroke="black" points="427,-206 427,-227 549,-227 549,-206 427,-206"/>
<text text-anchor="start" x="481" y="-212.3" font-family="Times,serif" font-size="14.00">24</text>
<polygon fill="none" stroke="black" points="427,-186 427,-206 549,-206 549,-186 427,-186"/>
<text text-anchor="start" x="448.058" y="-191.8" font-family="Times,serif" font-size="14.00">:db/valueType</text>
<polygon fill="none" stroke="black" points="427,-166 427,-186 549,-186 549,-166 427,-166"/>
<text text-anchor="start" x="430.363" y="-171.8" font-family="Times,serif" font-size="14.00">:db.valueType/string</text>
<polygon fill="none" stroke="black" points="427,-146 427,-166 549,-166 549,-146 427,-146"/>
<text text-anchor="start" x="474" y="-151.8" font-family="Times,serif" font-size="14.00">1244</text>
<polygon fill="none" stroke="black" points="427,-126 427,-146 549,-146 549,-126 427,-126"/>
<text text-anchor="start" x="477.893" y="-131.8" font-family="Times,serif" font-size="14.00">add</text>
</g>
<!-- last&#45;name&#45;type&#45;&gt;attr24 -->
<g id="edge6" class="edge"><title>last&#45;name&#45;type&#45;&gt;attr24</title>
<path fill="none" stroke="black" d="M553.092,-122.32C557.382,-119.392 561.705,-116.592 566,-114 586.935,-101.367 610.903,-89.8488 633.067,-80.2607"/>
<polygon fill="black" stroke="black" points="634.61,-83.4079 642.441,-76.272 631.869,-76.9667 634.61,-83.4079"/>
</g>
<!-- email&#45;ident -->
<g id="node7" class="node"><title>email&#45;ident</title>
<polygon fill="none" stroke="black" points="318,-206 318,-227 387,-227 387,-206 318,-206"/>
<text text-anchor="start" x="345.5" y="-212.3" font-family="Times,serif" font-size="14.00">24</text>
<polygon fill="none" stroke="black" points="318,-186 318,-206 387,-206 387,-186 318,-186"/>
<text text-anchor="start" x="327.614" y="-191.8" font-family="Times,serif" font-size="14.00">:db/ident</text>
<polygon fill="none" stroke="black" points="318,-166 318,-186 387,-186 387,-166 318,-166"/>
<text text-anchor="start" x="321.4" y="-171.8" font-family="Times,serif" font-size="14.00">:user/email</text>
<polygon fill="none" stroke="black" points="318,-146 318,-166 387,-166 387,-146 318,-146"/>
<text text-anchor="start" x="338.5" y="-151.8" font-family="Times,serif" font-size="14.00">1244</text>
<polygon fill="none" stroke="black" points="318,-126 318,-146 387,-146 387,-126 318,-126"/>
<text text-anchor="start" x="342.393" y="-131.8" font-family="Times,serif" font-size="14.00">add</text>
</g>
<!-- attr25 -->
<g id="node12" class="node"><title>attr25</title>
<polygon fill="none" stroke="black" points="231,-60 231,-81 344,-81 344,-60 231,-60"/>
<text text-anchor="start" x="284" y="-66.3" font-family="Times,serif" font-size="14.00">0</text>
<polygon fill="none" stroke="black" points="231,-40 231,-60 344,-60 344,-40 231,-40"/>
<text text-anchor="start" x="234.426" y="-45.8" font-family="Times,serif" font-size="14.00">:db.install/attribute</text>
<polygon fill="none" stroke="black" points="231,-20 231,-40 344,-40 344,-20 231,-20"/>
<text text-anchor="start" x="280.5" y="-25.8" font-family="Times,serif" font-size="14.00">24</text>
</g>
<!-- email&#45;ident&#45;&gt;attr25 -->
<g id="edge7" class="edge"><title>email&#45;ident&#45;&gt;attr25</title>
<path fill="none" stroke="black" d="M323.868,-122.333C319.03,-113.103 314.06,-103.622 309.398,-94.7284"/>
<polygon fill="black" stroke="black" points="312.412,-92.9402 304.67,-85.7082 306.213,-96.1902 312.412,-92.9402"/>
</g>
<!-- email&#45;cardinality -->
<g id="node8" class="node"><title>email&#45;cardinality</title>
<polygon fill="none" stroke="black" points="161,-206 161,-227 284,-227 284,-206 161,-206"/>
<text text-anchor="start" x="215.5" y="-212.3" font-family="Times,serif" font-size="14.00">24</text>
<polygon fill="none" stroke="black" points="161,-186 161,-206 284,-206 284,-186 161,-186"/>
<text text-anchor="start" x="181.679" y="-191.8" font-family="Times,serif" font-size="14.00">:db/cardinality</text>
<polygon fill="none" stroke="black" points="161,-166 161,-186 284,-186 284,-166 161,-166"/>
<text text-anchor="start" x="164.377" y="-171.8" font-family="Times,serif" font-size="14.00">:db.cardinality/many</text>
<polygon fill="none" stroke="black" points="161,-146 161,-166 284,-166 284,-146 161,-146"/>
<text text-anchor="start" x="208.5" y="-151.8" font-family="Times,serif" font-size="14.00">1246</text>
<polygon fill="none" stroke="black" points="161,-126 161,-146 284,-146 284,-126 161,-126"/>
<text text-anchor="start" x="212.393" y="-131.8" font-family="Times,serif" font-size="14.00">add</text>
</g>
<!-- email&#45;cardinality&#45;&gt;attr25 -->
<g id="edge8" class="edge"><title>email&#45;cardinality&#45;&gt;attr25</title>
<path fill="none" stroke="black" d="M250.132,-122.333C254.97,-113.103 259.94,-103.622 264.602,-94.7284"/>
<polygon fill="black" stroke="black" points="267.787,-96.1902 269.33,-85.7082 261.588,-92.9402 267.787,-96.1902"/>
</g>
<!-- email&#45;type -->
<g id="node9" class="node"><title>email&#45;type</title>
<polygon fill="none" stroke="black" points="32,-206 32,-227 126,-227 126,-206 32,-206"/>
<text text-anchor="start" x="72" y="-212.3" font-family="Times,serif" font-size="14.00">24</text>
<polygon fill="none" stroke="black" points="32,-186 32,-206 126,-206 126,-186 32,-186"/>
<text text-anchor="start" x="39.0576" y="-191.8" font-family="Times,serif" font-size="14.00">:db/valueType</text>
<polygon fill="none" stroke="black" points="32,-166 32,-186 126,-186 126,-166 32,-166"/>
<text text-anchor="start" x="35.2568" y="-171.8" font-family="Times,serif" font-size="14.00">:db.value/string</text>
<polygon fill="none" stroke="black" points="32,-146 32,-166 126,-166 126,-146 32,-146"/>
<text text-anchor="start" x="65" y="-151.8" font-family="Times,serif" font-size="14.00">1246</text>
<polygon fill="none" stroke="black" points="32,-126 32,-146 126,-146 126,-126 32,-126"/>
<text text-anchor="start" x="68.8931" y="-131.8" font-family="Times,serif" font-size="14.00">add</text>
</g>
<!-- email&#45;type&#45;&gt;attr25 -->
<g id="edge9" class="edge"><title>email&#45;type&#45;&gt;attr25</title>
<path fill="none" stroke="black" d="M131.541,-122.374C135.303,-119.397 139.139,-116.575 143,-114 164.397,-99.7339 189.615,-87.5529 212.919,-77.8612"/>
<polygon fill="black" stroke="black" points="214.48,-81.0049 222.427,-73.9981 211.845,-74.5197 214.48,-81.0049"/>
</g>
<!-- datom1 -->
<g id="node13" class="node"><title>datom1</title>
<polygon fill="none" stroke="black" points="1473,-400 1473,-421 1567,-421 1567,-400 1473,-400"/>
<text text-anchor="start" x="1506" y="-406.3" font-family="Times,serif" font-size="14.00" fill="red">2132</text>
<polygon fill="none" stroke="black" points="1473,-380 1473,-400 1567,-400 1567,-380 1473,-380"/>
<text text-anchor="start" x="1476.07" y="-385.8" font-family="Times,serif" font-size="14.00">:user/first&#45;name</text>
<polygon fill="none" stroke="black" points="1473,-360 1473,-380 1567,-380 1567,-360 1473,-360"/>
<text text-anchor="start" x="1507.17" y="-365.8" font-family="Times,serif" font-size="14.00">felix</text>
<polygon fill="none" stroke="black" points="1473,-340 1473,-360 1567,-360 1567,-340 1473,-340"/>
<text text-anchor="start" x="1502.5" y="-345.8" font-family="Times,serif" font-size="14.00">32142</text>
<polygon fill="none" stroke="black" points="1473,-320 1473,-340 1567,-340 1567,-320 1473,-320"/>
<text text-anchor="start" x="1509.89" y="-325.8" font-family="Times,serif" font-size="14.00">add</text>
</g>
<!-- firstname -->
<g id="node16" class="node"><title>firstname</title>
<path fill="none" stroke="black" d="M1458.62,-155C1458.62,-155 1507.38,-155 1507.38,-155 1513.38,-155 1519.38,-161 1519.38,-167 1519.38,-167 1519.38,-187 1519.38,-187 1519.38,-193 1513.38,-199 1507.38,-199 1507.38,-199 1458.62,-199 1458.62,-199 1452.62,-199 1446.62,-193 1446.62,-187 1446.62,-187 1446.62,-167 1446.62,-167 1446.62,-161 1452.62,-155 1458.62,-155"/>
<text text-anchor="middle" x="1483" y="-183.8" font-family="Times,serif" font-size="14.00">first&#45;name</text>
<polyline fill="none" stroke="black" points="1446.62,-177 1519.38,-177 "/>
<text text-anchor="middle" x="1483" y="-161.8" font-family="Times,serif" font-size="14.00">felix</text>
</g>
<!-- datom1&#45;&gt;firstname -->
<g id="edge10" class="edge"><title>datom1&#45;&gt;firstname:fnv</title>
<path fill="none" stroke="pink" d="M1540.38,-316.401C1560.45,-255.96 1580.21,-166 1520,-166"/>
</g>
<!-- datom2 -->
<g id="node14" class="node"><title>datom2</title>
<polygon fill="none" stroke="black" points="1347,-400 1347,-421 1439,-421 1439,-400 1347,-400"/>
<text text-anchor="start" x="1379" y="-406.3" font-family="Times,serif" font-size="14.00" fill="red">2132</text>
<polygon fill="none" stroke="black" points="1347,-380 1347,-400 1439,-400 1439,-380 1347,-380"/>
<text text-anchor="start" x="1350.24" y="-385.8" font-family="Times,serif" font-size="14.00">:user/last&#45;name</text>
<polygon fill="none" stroke="black" points="1347,-360 1347,-380 1439,-380 1439,-360 1347,-360"/>
<text text-anchor="start" x="1377.44" y="-365.8" font-family="Times,serif" font-size="14.00">flores</text>
<polygon fill="none" stroke="black" points="1347,-340 1347,-360 1439,-360 1439,-340 1347,-340"/>
<text text-anchor="start" x="1375.5" y="-345.8" font-family="Times,serif" font-size="14.00">32142</text>
<polygon fill="none" stroke="black" points="1347,-320 1347,-340 1439,-340 1439,-320 1347,-320"/>
<text text-anchor="start" x="1382.89" y="-325.8" font-family="Times,serif" font-size="14.00">add</text>
</g>
<!-- lastname -->
<g id="node17" class="node"><title>lastname</title>
<path fill="none" stroke="black" d="M1369.79,-155C1369.79,-155 1416.21,-155 1416.21,-155 1422.21,-155 1428.21,-161 1428.21,-167 1428.21,-167 1428.21,-187 1428.21,-187 1428.21,-193 1422.21,-199 1416.21,-199 1416.21,-199 1369.79,-199 1369.79,-199 1363.79,-199 1357.79,-193 1357.79,-187 1357.79,-187 1357.79,-167 1357.79,-167 1357.79,-161 1363.79,-155 1369.79,-155"/>
<text text-anchor="middle" x="1393" y="-183.8" font-family="Times,serif" font-size="14.00">last&#45;name</text>
<polyline fill="none" stroke="black" points="1357.79,-177 1428.21,-177 "/>
<text text-anchor="middle" x="1393" y="-161.8" font-family="Times,serif" font-size="14.00">flores</text>
</g>
<!-- datom2&#45;&gt;lastname -->
<g id="edge12" class="edge"><title>datom2&#45;&gt;lastname:lnv</title>
<path fill="none" stroke="pink" d="M1407.63,-316.401C1423.39,-255.96 1444.28,-166 1429,-166"/>
</g>
<!-- datom3 -->
<g id="node15" class="node"><title>datom3</title>
<polygon fill="none" stroke="black" points="1220,-400 1220,-421 1313,-421 1313,-400 1220,-400"/>
<text text-anchor="start" x="1252.5" y="-406.3" font-family="Times,serif" font-size="14.00" fill="red">2132</text>
<polygon fill="none" stroke="black" points="1220,-380 1220,-400 1313,-400 1313,-380 1220,-380"/>
<text text-anchor="start" x="1235.4" y="-385.8" font-family="Times,serif" font-size="14.00">:user/email</text>
<polygon fill="none" stroke="black" points="1220,-360 1220,-380 1313,-380 1313,-360 1220,-360"/>
<text text-anchor="start" x="1223.32" y="-365.8" font-family="Times,serif" font-size="14.00">felix@neo.com</text>
<polygon fill="none" stroke="black" points="1220,-340 1220,-360 1313,-360 1313,-340 1220,-340"/>
<text text-anchor="start" x="1249" y="-345.8" font-family="Times,serif" font-size="14.00">32142</text>
<polygon fill="none" stroke="black" points="1220,-320 1220,-340 1313,-340 1313,-320 1220,-320"/>
<text text-anchor="start" x="1256.39" y="-325.8" font-family="Times,serif" font-size="14.00">add</text>
</g>
<!-- email -->
<g id="node18" class="node"><title>email</title>
<path fill="none" stroke="black" d="M1276.62,-155C1276.62,-155 1327.38,-155 1327.38,-155 1333.38,-155 1339.38,-161 1339.38,-167 1339.38,-167 1339.38,-187 1339.38,-187 1339.38,-193 1333.38,-199 1327.38,-199 1327.38,-199 1276.62,-199 1276.62,-199 1270.62,-199 1264.62,-193 1264.62,-187 1264.62,-187 1264.62,-167 1264.62,-167 1264.62,-161 1270.62,-155 1276.62,-155"/>
<text text-anchor="middle" x="1302" y="-183.8" font-family="Times,serif" font-size="14.00">email</text>
<polyline fill="none" stroke="black" points="1264.62,-177 1339.38,-177 "/>
<text text-anchor="middle" x="1302" y="-161.8" font-family="Times,serif" font-size="14.00">felix@neo</text>
</g>
<!-- datom3&#45;&gt;email -->
<g id="edge14" class="edge"><title>datom3&#45;&gt;email:env</title>
<path fill="none" stroke="pink" d="M1260.38,-316.401C1254.77,-255.96 1248.95,-166 1264,-166"/>
</g>
<!-- firstname&#45;&gt;attr23 -->
<g id="edge11" class="edge"><title>firstname:fnl&#45;&gt;attr23</title>
<path fill="none" stroke="pink" d="M1446,-188C1429.43,-188 1448.33,-126.089 1437,-114 1401.83,-76.4601 1258.02,-61.1922 1172.61,-55.344"/>
</g>
<!-- lastname&#45;&gt;attr24 -->
<g id="edge13" class="edge"><title>lastname:lnl&#45;&gt;attr24</title>
<path fill="none" stroke="pink" d="M1357,-188C1340.43,-188 1359.9,-125.526 1348,-114 1322.92,-89.706 1069.76,-89.3557 1035,-86 943.397,-77.1555 837.506,-66.0124 771.389,-58.9448"/>
</g>
<!-- email&#45;&gt;attr25 -->
<g id="edge15" class="edge"><title>email:enl&#45;&gt;attr25</title>
<path fill="none" stroke="pink" d="M1264,-188C1230.04,-188 1271.35,-135.42 1245,-114 1218.63,-92.5641 667.893,-88.4354 634,-86 535.285,-78.9068 421.121,-67.0054 351.508,-59.3308"/>
</g>
</g>
</svg>
