<?xml version="1.0" encoding="UTF-8" standalone="no"?>
<!DOCTYPE svg PUBLIC "-//W3C//DTD SVG 1.1//EN"
 "http://www.w3.org/Graphics/SVG/1.1/DTD/svg11.dtd">
<!-- Generated by graphviz version 2.36.0 (20140111.2315)
 -->
<!-- Title: Schema Pages: 1 -->
<svg width="1645pt" height="308pt"
 viewBox="0.00 0.00 1645.00 308.00" xmlns="http://www.w3.org/2000/svg" xmlns:xlink="http://www.w3.org/1999/xlink">
<g id="graph0" class="graph" transform="scale(1 1) rotate(0) translate(4 304)">
<title>Schema</title>
<polygon fill="white" stroke="none" points="-4,4 -4,-304 1641,-304 1641,4 -4,4"/>
<g id="clust1" class="cluster"><title>cluster_1</title>
<polygon fill="none" stroke="black" points="8,-8 8,-292 1249,-292 1249,-8 8,-8"/>
<text text-anchor="middle" x="628.5" y="-276.8" font-family="Times,serif" font-size="14.00">:db.part/db</text>
</g>
<g id="clust2" class="cluster"><title>cluster_0</title>
<polygon fill="none" stroke="black" points="847,-114 847,-262 1241,-262 1241,-114 847,-114"/>
<text text-anchor="middle" x="1044" y="-246.8" font-family="Times,serif" font-size="14.00">first&#45;name attribute</text>
</g>
<g id="clust3" class="cluster"><title>cluster_2</title>
<polygon fill="none" stroke="black" points="411,-114 411,-262 839,-262 839,-114 411,-114"/>
<text text-anchor="middle" x="625" y="-246.8" font-family="Times,serif" font-size="14.00">last&#45;name attribute</text>
</g>
<g id="clust4" class="cluster"><title>cluster_3</title>
<polygon fill="none" stroke="black" points="16,-114 16,-262 403,-262 403,-114 16,-114"/>
<text text-anchor="middle" x="209.5" y="-246.8" font-family="Times,serif" font-size="14.00">email attribute</text>
</g>
<g id="clust5" class="cluster"><title>cluster_11</title>
<polygon fill="none" stroke="black" points="1257,-126 1257,-272 1629,-272 1629,-126 1257,-126"/>
<text text-anchor="middle" x="1443" y="-256.8" font-family="Times,serif" font-size="14.00">db.part/user</text>
</g>
<g id="clust6" class="cluster"><title>cluster_13</title>
<polygon fill="none" stroke="black" points="1265,-134 1265,-242 1621,-242 1621,-134 1265,-134"/>
<text text-anchor="middle" x="1443" y="-226.8" font-family="Times,serif" font-size="14.00">Candidate Transaction</text>
</g>
<!-- first&#45;name&#45;ident -->
<g id="node1" class="node"><title>first&#45;name&#45;ident</title>
<polygon fill="none" stroke="black" points="1131,-206 1131,-227 1225,-227 1225,-206 1131,-206"/>
<text text-anchor="start" x="1171" y="-212.3" font-family="Times,serif" font-size="14.00">23</text>
<polygon fill="none" stroke="black" points="1131,-186 1131,-206 1225,-206 1225,-186 1131,-186"/>
<text text-anchor="start" x="1153.11" y="-191.8" font-family="Times,serif" font-size="14.00">:db/ident</text>
<polygon fill="none" stroke="black" points="1131,-166 1131,-186 1225,-186 1225,-166 1131,-166"/>
<text text-anchor="start" x="1134.07" y="-171.8" font-family="Times,serif" font-size="14.00">:user/first&#45;name</text>
<polygon fill="none" stroke="black" points="1131,-146 1131,-166 1225,-166 1225,-146 1131,-146"/>
<text text-anchor="start" x="1164" y="-151.8" font-family="Times,serif" font-size="14.00">1244</text>
<polygon fill="none" stroke="black" points="1131,-126 1131,-146 1225,-146 1225,-126 1131,-126"/>
<text text-anchor="start" x="1167.89" y="-131.8" font-family="Times,serif" font-size="14.00">add</text>
</g>
<!-- attr23 -->
<g id="node10" class="node"><title>attr23</title>
<polygon fill="none" stroke="black" points="985,-60 985,-81 1098,-81 1098,-60 985,-60"/>
<text text-anchor="start" x="1038" y="-66.3" font-family="Times,serif" font-size="14.00">0</text>
<polygon fill="none" stroke="black" points="985,-40 985,-60 1098,-60 1098,-40 985,-40"/>
<text text-anchor="start" x="988.426" y="-45.8" font-family="Times,serif" font-size="14.00">:db.install/attribute</text>
<polygon fill="none" stroke="black" points="985,-20 985,-40 1098,-40 1098,-20 985,-20"/>
<text text-anchor="start" x="1034.5" y="-25.8" font-family="Times,serif" font-size="14.00">23</text>
</g>
<!-- first&#45;name&#45;ident&#45;&gt;attr23 -->
<g id="edge1" class="edge"><title>first&#45;name&#45;ident&#45;&gt;attr23</title>
<path fill="none" stroke="black" d="M1123.06,-122.333C1120.01,-119.496 1116.98,-116.703 1114,-114 1103.66,-104.615 1092.24,-94.7136 1081.57,-85.6451"/>
</g>
<!-- first&#45;name&#45;cardinality -->
<g id="node2" class="node"><title>first&#45;name&#45;cardinality</title>
<polygon fill="none" stroke="black" points="985,-206 985,-227 1097,-227 1097,-206 985,-206"/>
<text text-anchor="start" x="1034" y="-212.3" font-family="Times,serif" font-size="14.00">23</text>
<polygon fill="none" stroke="black" points="985,-186 985,-206 1097,-206 1097,-186 985,-186"/>
<text text-anchor="start" x="1000.18" y="-191.8" font-family="Times,serif" font-size="14.00">:db/cardinality</text>
<polygon fill="none" stroke="black" points="985,-166 985,-186 1097,-186 1097,-166 985,-166"/>
<text text-anchor="start" x="988.322" y="-171.8" font-family="Times,serif" font-size="14.00">:db.cardinality/one</text>
<polygon fill="none" stroke="black" points="985,-146 985,-166 1097,-166 1097,-146 985,-146"/>
<text text-anchor="start" x="1027" y="-151.8" font-family="Times,serif" font-size="14.00">1244</text>
<polygon fill="none" stroke="black" points="985,-126 985,-146 1097,-146 1097,-126 985,-126"/>
<text text-anchor="start" x="1030.89" y="-131.8" font-family="Times,serif" font-size="14.00">add</text>
</g>
<!-- first&#45;name&#45;cardinality&#45;&gt;attr23 -->
<g id="edge2" class="edge"><title>first&#45;name&#45;cardinality&#45;&gt;attr23</title>
<path fill="none" stroke="black" d="M1041,-122.333C1041,-109.897 1041,-97.0049 1041,-85.7082"/>
</g>
<!-- first&#45;name&#45;type -->
<g id="node3" class="node"><title>first&#45;name&#45;type</title>
<polygon fill="none" stroke="black" points="863,-206 863,-227 951,-227 951,-206 863,-206"/>
<text text-anchor="start" x="900" y="-212.3" font-family="Times,serif" font-size="14.00">23</text>
<polygon fill="none" stroke="black" points="863,-186 863,-206 951,-206 951,-186 863,-186"/>
<text text-anchor="start" x="867.058" y="-191.8" font-family="Times,serif" font-size="14.00">:db/valueType</text>
<polygon fill="none" stroke="black" points="863,-166 863,-186 951,-186 951,-166 863,-166"/>
<text text-anchor="start" x="866.364" y="-171.8" font-family="Times,serif" font-size="14.00">:db.type/string</text>
<polygon fill="none" stroke="black" points="863,-146 863,-166 951,-166 951,-146 863,-146"/>
<text text-anchor="start" x="893" y="-151.8" font-family="Times,serif" font-size="14.00">1244</text>
<polygon fill="none" stroke="black" points="863,-126 863,-146 951,-146 951,-126 863,-126"/>
<text text-anchor="start" x="896.893" y="-131.8" font-family="Times,serif" font-size="14.00">add</text>
</g>
<!-- first&#45;name&#45;type&#45;&gt;attr23 -->
<g id="edge3" class="edge"><title>first&#45;name&#45;type&#45;&gt;attr23</title>
<path fill="none" stroke="black" d="M959.276,-122.261C962.203,-119.442 965.124,-116.673 968,-114 978.109,-104.605 989.337,-94.7843 999.895,-85.8022"/>
</g>
<!-- last&#45;name&#45;ident -->
<g id="node4" class="node"><title>last&#45;name&#45;ident</title>
<polygon fill="none" stroke="black" points="729,-206 729,-227 823,-227 823,-206 729,-206"/>
<text text-anchor="start" x="769" y="-212.3" font-family="Times,serif" font-size="14.00">24</text>
<polygon fill="none" stroke="black" points="729,-186 729,-206 823,-206 823,-186 729,-186"/>
<text text-anchor="start" x="751.114" y="-191.8" font-family="Times,serif" font-size="14.00">:db/ident</text>
<polygon fill="none" stroke="black" points="729,-166 729,-186 823,-186 823,-166 729,-166"/>
<text text-anchor="start" x="732.065" y="-171.8" font-family="Times,serif" font-size="14.00">:user/first&#45;name</text>
<polygon fill="none" stroke="black" points="729,-146 729,-166 823,-166 823,-146 729,-146"/>
<text text-anchor="start" x="762" y="-151.8" font-family="Times,serif" font-size="14.00">1244</text>
<polygon fill="none" stroke="black" points="729,-126 729,-146 823,-146 823,-126 729,-126"/>
<text text-anchor="start" x="765.893" y="-131.8" font-family="Times,serif" font-size="14.00">add</text>
</g>
<!-- attr24 -->
<g id="node11" class="node"><title>attr24</title>
<polygon fill="none" stroke="black" points="583,-60 583,-81 696,-81 696,-60 583,-60"/>
<text text-anchor="start" x="636" y="-66.3" font-family="Times,serif" font-size="14.00">0</text>
<polygon fill="none" stroke="black" points="583,-40 583,-60 696,-60 696,-40 583,-40"/>
<text text-anchor="start" x="586.426" y="-45.8" font-family="Times,serif" font-size="14.00">:db.install/attribute</text>
<polygon fill="none" stroke="black" points="583,-20 583,-40 696,-40 696,-20 583,-20"/>
<text text-anchor="start" x="632.5" y="-25.8" font-family="Times,serif" font-size="14.00">24</text>
</g>
<!-- last&#45;name&#45;ident&#45;&gt;attr24 -->
<g id="edge4" class="edge"><title>last&#45;name&#45;ident&#45;&gt;attr24</title>
<path fill="none" stroke="black" d="M721.06,-122.333C718.013,-119.496 714.979,-116.703 712,-114 701.656,-104.615 690.24,-94.7136 679.57,-85.6451"/>
</g>
<!-- last&#45;name&#45;cardinality -->
<g id="node5" class="node"><title>last&#45;name&#45;cardinality</title>
<polygon fill="none" stroke="black" points="583,-206 583,-227 695,-227 695,-206 583,-206"/>
<text text-anchor="start" x="632" y="-212.3" font-family="Times,serif" font-size="14.00">24</text>
<polygon fill="none" stroke="black" points="583,-186 583,-206 695,-206 695,-186 583,-186"/>
<text text-anchor="start" x="598.179" y="-191.8" font-family="Times,serif" font-size="14.00">:db/cardinality</text>
<polygon fill="none" stroke="black" points="583,-166 583,-186 695,-186 695,-166 583,-166"/>
<text text-anchor="start" x="586.322" y="-171.8" font-family="Times,serif" font-size="14.00">:db.cardinality/one</text>
<polygon fill="none" stroke="black" points="583,-146 583,-166 695,-166 695,-146 583,-146"/>
<text text-anchor="start" x="625" y="-151.8" font-family="Times,serif" font-size="14.00">1244</text>
<polygon fill="none" stroke="black" points="583,-126 583,-146 695,-146 695,-126 583,-126"/>
<text text-anchor="start" x="628.893" y="-131.8" font-family="Times,serif" font-size="14.00">add</text>
</g>
<!-- last&#45;name&#45;cardinality&#45;&gt;attr24 -->
<g id="edge5" class="edge"><title>last&#45;name&#45;cardinality&#45;&gt;attr24</title>
<path fill="none" stroke="black" d="M639,-122.333C639,-109.897 639,-97.0049 639,-85.7082"/>
</g>
<!-- last&#45;name&#45;type -->
<g id="node6" class="node"><title>last&#45;name&#45;type</title>
<polygon fill="none" stroke="black" points="427,-206 427,-227 549,-227 549,-206 427,-206"/>
<text text-anchor="start" x="481" y="-212.3" font-family="Times,serif" font-size="14.00">24</text>
<polygon fill="none" stroke="black" points="427,-186 427,-206 549,-206 549,-186 427,-186"/>
<text text-anchor="start" x="448.058" y="-191.8" font-family="Times,serif" font-size="14.00">:db/valueType</text>
<polygon fill="none" stroke="black" points="427,-166 427,-186 549,-186 549,-166 427,-166"/>
<text text-anchor="start" x="430.363" y="-171.8" font-family="Times,serif" font-size="14.00">:db.valueType/string</text>
<polygon fill="none" stroke="black" points="427,-146 427,-166 549,-166 549,-146 427,-146"/>
<text text-anchor="start" x="474" y="-151.8" font-family="Times,serif" font-size="14.00">1244</text>
<polygon fill="none" stroke="black" points="427,-126 427,-146 549,-146 549,-126 427,-126"/>
<text text-anchor="start" x="477.893" y="-131.8" font-family="Times,serif" font-size="14.00">add</text>
</g>
<!-- last&#45;name&#45;type&#45;&gt;attr24 -->
<g id="edge6" class="edge"><title>last&#45;name&#45;type&#45;&gt;attr24</title>
<path fill="none" stroke="black" d="M553.353,-122.333C568.497,-109.897 584.196,-97.0049 597.952,-85.7082"/>
</g>
<!-- email&#45;ident -->
<g id="node7" class="node"><title>email&#45;ident</title>
<polygon fill="none" stroke="black" points="318,-206 318,-227 387,-227 387,-206 318,-206"/>
<text text-anchor="start" x="345.5" y="-212.3" font-family="Times,serif" font-size="14.00">24</text>
<polygon fill="none" stroke="black" points="318,-186 318,-206 387,-206 387,-186 318,-186"/>
<text text-anchor="start" x="327.614" y="-191.8" font-family="Times,serif" font-size="14.00">:db/ident</text>
<polygon fill="none" stroke="black" points="318,-166 318,-186 387,-186 387,-166 318,-166"/>
<text text-anchor="start" x="321.4" y="-171.8" font-family="Times,serif" font-size="14.00">:user/email</text>
<polygon fill="none" stroke="black" points="318,-146 318,-166 387,-166 387,-146 318,-146"/>
<text text-anchor="start" x="338.5" y="-151.8" font-family="Times,serif" font-size="14.00">1244</text>
<polygon fill="none" stroke="black" points="318,-126 318,-146 387,-146 387,-126 318,-126"/>
<text text-anchor="start" x="342.393" y="-131.8" font-family="Times,serif" font-size="14.00">add</text>
</g>
<!-- attr25 -->
<g id="node12" class="node"><title>attr25</title>
<polygon fill="none" stroke="black" points="166,-60 166,-81 279,-81 279,-60 166,-60"/>
<text text-anchor="start" x="219" y="-66.3" font-family="Times,serif" font-size="14.00">0</text>
<polygon fill="none" stroke="black" points="166,-40 166,-60 279,-60 279,-40 166,-40"/>
<text text-anchor="start" x="169.426" y="-45.8" font-family="Times,serif" font-size="14.00">:db.install/attribute</text>
<polygon fill="none" stroke="black" points="166,-20 166,-40 279,-40 279,-20 166,-20"/>
<text text-anchor="start" x="215.5" y="-25.8" font-family="Times,serif" font-size="14.00">24</text>
</g>
<!-- email&#45;ident&#45;&gt;attr25 -->
<g id="edge7" class="edge"><title>email&#45;ident&#45;&gt;attr25</title>
<path fill="none" stroke="black" d="M309.631,-123.869C306.448,-120.458 303.22,-117.137 300,-114 289.963,-104.223 278.468,-94.4264 267.444,-85.6009"/>
</g>
<!-- email&#45;cardinality -->
<g id="node8" class="node"><title>email&#45;cardinality</title>
<polygon fill="none" stroke="black" points="161,-206 161,-227 284,-227 284,-206 161,-206"/>
<text text-anchor="start" x="215.5" y="-212.3" font-family="Times,serif" font-size="14.00">24</text>
<polygon fill="none" stroke="black" points="161,-186 161,-206 284,-206 284,-186 161,-186"/>
<text text-anchor="start" x="181.679" y="-191.8" font-family="Times,serif" font-size="14.00">:db/cardinality</text>
<polygon fill="none" stroke="black" points="161,-166 161,-186 284,-186 284,-166 161,-166"/>
<text text-anchor="start" x="164.377" y="-171.8" font-family="Times,serif" font-size="14.00">:db.cardinality/many</text>
<polygon fill="none" stroke="black" points="161,-146 161,-166 284,-166 284,-146 161,-146"/>
<text text-anchor="start" x="208.5" y="-151.8" font-family="Times,serif" font-size="14.00">1246</text>
<polygon fill="none" stroke="black" points="161,-126 161,-146 284,-146 284,-126 161,-126"/>
<text text-anchor="start" x="212.393" y="-131.8" font-family="Times,serif" font-size="14.00">add</text>
</g>
<!-- email&#45;cardinality&#45;&gt;attr25 -->
<g id="edge8" class="edge"><title>email&#45;cardinality&#45;&gt;attr25</title>
<path fill="none" stroke="black" d="M222,-122.333C222,-109.897 222,-97.0049 222,-85.7082"/>
</g>
<!-- email&#45;type -->
<g id="node9" class="node"><title>email&#45;type</title>
<polygon fill="none" stroke="black" points="32,-206 32,-227 126,-227 126,-206 32,-206"/>
<text text-anchor="start" x="72" y="-212.3" font-family="Times,serif" font-size="14.00">24</text>
<polygon fill="none" stroke="black" points="32,-186 32,-206 126,-206 126,-186 32,-186"/>
<text text-anchor="start" x="39.0576" y="-191.8" font-family="Times,serif" font-size="14.00">:db/valueType</text>
<polygon fill="none" stroke="black" points="32,-166 32,-186 126,-186 126,-166 32,-166"/>
<text text-anchor="start" x="35.2568" y="-171.8" font-family="Times,serif" font-size="14.00">:db.value/string</text>
<polygon fill="none" stroke="black" points="32,-146 32,-166 126,-166 126,-146 32,-146"/>
<text text-anchor="start" x="65" y="-151.8" font-family="Times,serif" font-size="14.00">1246</text>
<polygon fill="none" stroke="black" points="32,-126 32,-146 126,-146 126,-126 32,-126"/>
<text text-anchor="start" x="68.8931" y="-131.8" font-family="Times,serif" font-size="14.00">add</text>
</g>
<!-- email&#45;type&#45;&gt;attr25 -->
<g id="edge9" class="edge"><title>email&#45;type&#45;&gt;attr25</title>
<path fill="none" stroke="black" d="M133.815,-122.193C136.894,-119.391 139.969,-116.644 143,-114 153.903,-104.486 166.041,-94.6236 177.466,-85.6392"/>
</g>
<!-- datom1 -->
<g id="node13" class="node"><title>datom1</title>
<polygon fill="none" stroke="black" points="1511,-186 1511,-207 1605,-207 1605,-186 1511,-186"/>
<text text-anchor="start" x="1544" y="-192.3" font-family="Times,serif" font-size="14.00">2132</text>
<polygon fill="none" stroke="black" points="1511,-166 1511,-186 1605,-186 1605,-166 1511,-166"/>
<text text-anchor="start" x="1514.07" y="-171.8" font-family="Times,serif" font-size="14.00">:user/first&#45;name</text>
<polygon fill="none" stroke="black" points="1511,-146 1511,-166 1605,-166 1605,-146 1511,-146"/>
<text text-anchor="start" x="1545.17" y="-151.8" font-family="Times,serif" font-size="14.00">felix</text>
</g>
<!-- datom2 -->
<g id="node14" class="node"><title>datom2</title>
<polygon fill="none" stroke="black" points="1385,-186 1385,-207 1477,-207 1477,-186 1385,-186"/>
<text text-anchor="start" x="1417" y="-192.3" font-family="Times,serif" font-size="14.00">2132</text>
<polygon fill="none" stroke="black" points="1385,-166 1385,-186 1477,-186 1477,-166 1385,-166"/>
<text text-anchor="start" x="1388.24" y="-171.8" font-family="Times,serif" font-size="14.00">:user/last&#45;name</text>
<polygon fill="none" stroke="black" points="1385,-146 1385,-166 1477,-166 1477,-146 1385,-146"/>
<text text-anchor="start" x="1415.44" y="-151.8" font-family="Times,serif" font-size="14.00">flores</text>
</g>
<!-- datom3 -->
<g id="node15" class="node"><title>datom3</title>
<polygon fill="none" stroke="black" points="1282,-186 1282,-207 1351,-207 1351,-186 1282,-186"/>
<text text-anchor="start" x="1302.5" y="-192.3" font-family="Times,serif" font-size="14.00">2132</text>
<polygon fill="none" stroke="black" points="1282,-166 1282,-186 1351,-186 1351,-166 1282,-166"/>
<text text-anchor="start" x="1285.4" y="-171.8" font-family="Times,serif" font-size="14.00">:user/email</text>
<polygon fill="none" stroke="black" points="1282,-146 1282,-166 1351,-166 1351,-146 1282,-146"/>
<text text-anchor="start" x="1300.94" y="-151.8" font-family="Times,serif" font-size="14.00">flores</text>
</g>
</g>
</svg>
