<?xml version="1.0" encoding="UTF-8" standalone="no"?>
<!DOCTYPE svg PUBLIC "-//W3C//DTD SVG 1.1//EN"
 "http://www.w3.org/Graphics/SVG/1.1/DTD/svg11.dtd">
<!-- Generated by graphviz version 2.36.0 (20140111.2315)
 -->
<!-- Title: Schema Pages: 1 -->
<svg width="1727pt" height="502pt"
 viewBox="0.00 0.00 1727.00 502.00" xmlns="http://www.w3.org/2000/svg" xmlns:xlink="http://www.w3.org/1999/xlink">
<g id="graph0" class="graph" transform="scale(1 1) rotate(0) translate(4 498)">
<title>Schema</title>
<polygon fill="white" stroke="none" points="-4,4 -4,-498 1723,-498 1723,4 -4,4"/>
<g id="clust1" class="cluster"><title>cluster_1</title>
<polygon fill="none" stroke="black" points="8,-8 8,-292 1249,-292 1249,-8 8,-8"/>
<text text-anchor="middle" x="628.5" y="-276.8" font-family="Times,serif" font-size="14.00">:db.part/db</text>
</g>
<g id="clust2" class="cluster"><title>cluster_0</title>
<polygon fill="none" stroke="black" points="847,-114 847,-262 1241,-262 1241,-114 847,-114"/>
<text text-anchor="middle" x="1044" y="-246.8" font-family="Times,serif" font-size="14.00">first&#45;name attribute</text>
</g>
<g id="clust3" class="cluster"><title>cluster_2</title>
<polygon fill="none" stroke="black" points="411,-114 411,-262 839,-262 839,-114 411,-114"/>
<text text-anchor="middle" x="625" y="-246.8" font-family="Times,serif" font-size="14.00">last&#45;name attribute</text>
</g>
<g id="clust4" class="cluster"><title>cluster_3</title>
<polygon fill="none" stroke="black" points="16,-114 16,-262 403,-262 403,-114 16,-114"/>
<text text-anchor="middle" x="209.5" y="-246.8" font-family="Times,serif" font-size="14.00">email attribute</text>
</g>
<g id="clust5" class="cluster"><title>cluster_11</title>
<polygon fill="none" stroke="black" points="1139,-300 1139,-486 1711,-486 1711,-300 1139,-300"/>
<text text-anchor="middle" x="1425" y="-470.8" font-family="Times,serif" font-size="14.00">db.part/user</text>
</g>
<g id="clust6" class="cluster"><title>cluster_13</title>
<polygon fill="none" stroke="black" points="1323,-308 1323,-456 1703,-456 1703,-308 1323,-308"/>
<text text-anchor="middle" x="1513" y="-440.8" font-family="Times,serif" font-size="14.00">Transaction 32142</text>
</g>
<g id="clust7" class="cluster"><title>cluster_213</title>
<polygon fill="none" stroke="black" points="1147,-308 1147,-456 1315,-456 1315,-308 1147,-308"/>
<text text-anchor="middle" x="1231" y="-440.8" font-family="Times,serif" font-size="14.00">Transaction 543634</text>
</g>
<g id="clust8" class="cluster"><title>cluster_99</title>
<path fill="none" stroke="grey" d="M1269,-146C1269,-146 1651,-146 1651,-146 1657,-146 1663,-152 1663,-158 1663,-158 1663,-218 1663,-218 1663,-224 1657,-230 1651,-230 1651,-230 1269,-230 1269,-230 1263,-230 1257,-224 1257,-218 1257,-218 1257,-158 1257,-158 1257,-152 1263,-146 1269,-146"/>
<text text-anchor="middle" x="1460" y="-214.8" font-family="Times,serif" font-size="14.00">Entity 2132</text>
</g>
<!-- first&#45;name&#45;ident -->
<g id="node1" class="node"><title>first&#45;name&#45;ident</title>
<polygon fill="none" stroke="black" points="1131,-206 1131,-227 1225,-227 1225,-206 1131,-206"/>
<text text-anchor="start" x="1171" y="-212.3" font-family="Times,serif" font-size="14.00">23</text>
<polygon fill="none" stroke="black" points="1131,-186 1131,-206 1225,-206 1225,-186 1131,-186"/>
<text text-anchor="start" x="1153.11" y="-191.8" font-family="Times,serif" font-size="14.00">:db/ident</text>
<polygon fill="none" stroke="black" points="1131,-166 1131,-186 1225,-186 1225,-166 1131,-166"/>
<text text-anchor="start" x="1134.07" y="-171.8" font-family="Times,serif" font-size="14.00">:user/first&#45;name</text>
<polygon fill="none" stroke="black" points="1131,-146 1131,-166 1225,-166 1225,-146 1131,-146"/>
<text text-anchor="start" x="1164" y="-151.8" font-family="Times,serif" font-size="14.00">1244</text>
<polygon fill="none" stroke="black" points="1131,-126 1131,-146 1225,-146 1225,-126 1131,-126"/>
<text text-anchor="start" x="1167.89" y="-131.8" font-family="Times,serif" font-size="14.00">add</text>
</g>
<!-- attr23 -->
<g id="node10" class="node"><title>attr23</title>
<polygon fill="none" stroke="black" points="1052,-60 1052,-81 1165,-81 1165,-60 1052,-60"/>
<text text-anchor="start" x="1105" y="-66.3" font-family="Times,serif" font-size="14.00">0</text>
<polygon fill="none" stroke="black" points="1052,-40 1052,-60 1165,-60 1165,-40 1052,-40"/>
<text text-anchor="start" x="1055.43" y="-45.8" font-family="Times,serif" font-size="14.00">:db.install/attribute</text>
<polygon fill="none" stroke="black" points="1052,-20 1052,-40 1165,-40 1165,-20 1052,-20"/>
<text text-anchor="start" x="1101.5" y="-25.8" font-family="Times,serif" font-size="14.00">23</text>
</g>
<!-- first&#45;name&#45;ident&#45;&gt;attr23 -->
<g id="edge1" class="edge"><title>first&#45;name&#45;ident&#45;&gt;attr23</title>
<path fill="none" stroke="black" d="M1147.7,-122.333C1142.44,-113.006 1137.03,-103.422 1131.96,-94.4478"/>
<polygon fill="black" stroke="black" points="1134.99,-92.6959 1127.03,-85.7082 1128.9,-96.1371 1134.99,-92.6959"/>
</g>
<!-- first&#45;name&#45;cardinality -->
<g id="node2" class="node"><title>first&#45;name&#45;cardinality</title>
<polygon fill="none" stroke="black" points="985,-206 985,-227 1097,-227 1097,-206 985,-206"/>
<text text-anchor="start" x="1034" y="-212.3" font-family="Times,serif" font-size="14.00">23</text>
<polygon fill="none" stroke="black" points="985,-186 985,-206 1097,-206 1097,-186 985,-186"/>
<text text-anchor="start" x="1000.18" y="-191.8" font-family="Times,serif" font-size="14.00">:db/cardinality</text>
<polygon fill="none" stroke="black" points="985,-166 985,-186 1097,-186 1097,-166 985,-166"/>
<text text-anchor="start" x="988.322" y="-171.8" font-family="Times,serif" font-size="14.00">:db.cardinality/one</text>
<polygon fill="none" stroke="black" points="985,-146 985,-166 1097,-166 1097,-146 985,-146"/>
<text text-anchor="start" x="1027" y="-151.8" font-family="Times,serif" font-size="14.00">1244</text>
<polygon fill="none" stroke="black" points="985,-126 985,-146 1097,-146 1097,-126 985,-126"/>
<text text-anchor="start" x="1030.89" y="-131.8" font-family="Times,serif" font-size="14.00">add</text>
</g>
<!-- first&#45;name&#45;cardinality&#45;&gt;attr23 -->
<g id="edge2" class="edge"><title>first&#45;name&#45;cardinality&#45;&gt;attr23</title>
<path fill="none" stroke="black" d="M1070,-122.333C1074.98,-113.103 1080.11,-103.622 1084.91,-94.7284"/>
<polygon fill="black" stroke="black" points="1088.11,-96.1699 1089.79,-85.7082 1081.95,-92.8423 1088.11,-96.1699"/>
</g>
<!-- first&#45;name&#45;type -->
<g id="node3" class="node"><title>first&#45;name&#45;type</title>
<polygon fill="none" stroke="black" points="863,-206 863,-227 951,-227 951,-206 863,-206"/>
<text text-anchor="start" x="900" y="-212.3" font-family="Times,serif" font-size="14.00">23</text>
<polygon fill="none" stroke="black" points="863,-186 863,-206 951,-206 951,-186 863,-186"/>
<text text-anchor="start" x="867.058" y="-191.8" font-family="Times,serif" font-size="14.00">:db/valueType</text>
<polygon fill="none" stroke="black" points="863,-166 863,-186 951,-186 951,-166 863,-166"/>
<text text-anchor="start" x="866.364" y="-171.8" font-family="Times,serif" font-size="14.00">:db.type/string</text>
<polygon fill="none" stroke="black" points="863,-146 863,-166 951,-166 951,-146 863,-146"/>
<text text-anchor="start" x="893" y="-151.8" font-family="Times,serif" font-size="14.00">1244</text>
<polygon fill="none" stroke="black" points="863,-126 863,-146 951,-146 951,-126 863,-126"/>
<text text-anchor="start" x="896.893" y="-131.8" font-family="Times,serif" font-size="14.00">add</text>
</g>
<!-- first&#45;name&#45;type&#45;&gt;attr23 -->
<g id="edge3" class="edge"><title>first&#45;name&#45;type&#45;&gt;attr23</title>
<path fill="none" stroke="black" d="M956.973,-122.381C960.585,-119.402 964.275,-116.577 968,-114 988.18,-100.039 1012.01,-88.0847 1034.24,-78.5052"/>
<polygon fill="black" stroke="black" points="1035.79,-81.6501 1043.65,-74.5462 1033.07,-75.1978 1035.79,-81.6501"/>
</g>
<!-- last&#45;name&#45;ident -->
<g id="node4" class="node"><title>last&#45;name&#45;ident</title>
<polygon fill="none" stroke="black" points="729,-206 729,-227 823,-227 823,-206 729,-206"/>
<text text-anchor="start" x="769" y="-212.3" font-family="Times,serif" font-size="14.00">24</text>
<polygon fill="none" stroke="black" points="729,-186 729,-206 823,-206 823,-186 729,-186"/>
<text text-anchor="start" x="751.114" y="-191.8" font-family="Times,serif" font-size="14.00">:db/ident</text>
<polygon fill="none" stroke="black" points="729,-166 729,-186 823,-186 823,-166 729,-166"/>
<text text-anchor="start" x="732.065" y="-171.8" font-family="Times,serif" font-size="14.00">:user/first&#45;name</text>
<polygon fill="none" stroke="black" points="729,-146 729,-166 823,-166 823,-146 729,-146"/>
<text text-anchor="start" x="762" y="-151.8" font-family="Times,serif" font-size="14.00">1244</text>
<polygon fill="none" stroke="black" points="729,-126 729,-146 823,-146 823,-126 729,-126"/>
<text text-anchor="start" x="765.893" y="-131.8" font-family="Times,serif" font-size="14.00">add</text>
</g>
<!-- attr24 -->
<g id="node11" class="node"><title>attr24</title>
<polygon fill="none" stroke="black" points="651,-60 651,-81 764,-81 764,-60 651,-60"/>
<text text-anchor="start" x="704" y="-66.3" font-family="Times,serif" font-size="14.00">0</text>
<polygon fill="none" stroke="black" points="651,-40 651,-60 764,-60 764,-40 651,-40"/>
<text text-anchor="start" x="654.426" y="-45.8" font-family="Times,serif" font-size="14.00">:db.install/attribute</text>
<polygon fill="none" stroke="black" points="651,-20 651,-40 764,-40 764,-20 651,-20"/>
<text text-anchor="start" x="700.5" y="-25.8" font-family="Times,serif" font-size="14.00">24</text>
</g>
<!-- last&#45;name&#45;ident&#45;&gt;attr24 -->
<g id="edge4" class="edge"><title>last&#45;name&#45;ident&#45;&gt;attr24</title>
<path fill="none" stroke="black" d="M746.137,-122.333C740.947,-113.006 735.614,-103.422 730.62,-94.4478"/>
<polygon fill="black" stroke="black" points="733.678,-92.7446 725.757,-85.7082 727.561,-96.1484 733.678,-92.7446"/>
</g>
<!-- last&#45;name&#45;cardinality -->
<g id="node5" class="node"><title>last&#45;name&#45;cardinality</title>
<polygon fill="none" stroke="black" points="583,-206 583,-227 695,-227 695,-206 583,-206"/>
<text text-anchor="start" x="632" y="-212.3" font-family="Times,serif" font-size="14.00">24</text>
<polygon fill="none" stroke="black" points="583,-186 583,-206 695,-206 695,-186 583,-186"/>
<text text-anchor="start" x="598.179" y="-191.8" font-family="Times,serif" font-size="14.00">:db/cardinality</text>
<polygon fill="none" stroke="black" points="583,-166 583,-186 695,-186 695,-166 583,-166"/>
<text text-anchor="start" x="586.322" y="-171.8" font-family="Times,serif" font-size="14.00">:db.cardinality/one</text>
<polygon fill="none" stroke="black" points="583,-146 583,-166 695,-166 695,-146 583,-146"/>
<text text-anchor="start" x="625" y="-151.8" font-family="Times,serif" font-size="14.00">1244</text>
<polygon fill="none" stroke="black" points="583,-126 583,-146 695,-146 695,-126 583,-126"/>
<text text-anchor="start" x="628.893" y="-131.8" font-family="Times,serif" font-size="14.00">add</text>
</g>
<!-- last&#45;name&#45;cardinality&#45;&gt;attr24 -->
<g id="edge5" class="edge"><title>last&#45;name&#45;cardinality&#45;&gt;attr24</title>
<path fill="none" stroke="black" d="M668.43,-122.333C673.492,-113.103 678.691,-103.622 683.568,-94.7284"/>
<polygon fill="black" stroke="black" points="686.775,-96.1593 688.515,-85.7082 680.638,-92.7934 686.775,-96.1593"/>
</g>
<!-- last&#45;name&#45;type -->
<g id="node6" class="node"><title>last&#45;name&#45;type</title>
<polygon fill="none" stroke="black" points="427,-206 427,-227 549,-227 549,-206 427,-206"/>
<text text-anchor="start" x="481" y="-212.3" font-family="Times,serif" font-size="14.00">24</text>
<polygon fill="none" stroke="black" points="427,-186 427,-206 549,-206 549,-186 427,-186"/>
<text text-anchor="start" x="448.058" y="-191.8" font-family="Times,serif" font-size="14.00">:db/valueType</text>
<polygon fill="none" stroke="black" points="427,-166 427,-186 549,-186 549,-166 427,-166"/>
<text text-anchor="start" x="430.363" y="-171.8" font-family="Times,serif" font-size="14.00">:db.valueType/string</text>
<polygon fill="none" stroke="black" points="427,-146 427,-166 549,-166 549,-146 427,-146"/>
<text text-anchor="start" x="474" y="-151.8" font-family="Times,serif" font-size="14.00">1244</text>
<polygon fill="none" stroke="black" points="427,-126 427,-146 549,-146 549,-126 427,-126"/>
<text text-anchor="start" x="477.893" y="-131.8" font-family="Times,serif" font-size="14.00">add</text>
</g>
<!-- last&#45;name&#45;type&#45;&gt;attr24 -->
<g id="edge6" class="edge"><title>last&#45;name&#45;type&#45;&gt;attr24</title>
<path fill="none" stroke="black" d="M553.092,-122.32C557.382,-119.392 561.705,-116.592 566,-114 586.935,-101.367 610.903,-89.8488 633.067,-80.2607"/>
<polygon fill="black" stroke="black" points="634.61,-83.4079 642.441,-76.272 631.869,-76.9667 634.61,-83.4079"/>
</g>
<!-- email&#45;ident -->
<g id="node7" class="node"><title>email&#45;ident</title>
<polygon fill="none" stroke="black" points="318,-206 318,-227 387,-227 387,-206 318,-206"/>
<text text-anchor="start" x="345.5" y="-212.3" font-family="Times,serif" font-size="14.00">24</text>
<polygon fill="none" stroke="black" points="318,-186 318,-206 387,-206 387,-186 318,-186"/>
<text text-anchor="start" x="327.614" y="-191.8" font-family="Times,serif" font-size="14.00">:db/ident</text>
<polygon fill="none" stroke="black" points="318,-166 318,-186 387,-186 387,-166 318,-166"/>
<text text-anchor="start" x="321.4" y="-171.8" font-family="Times,serif" font-size="14.00">:user/email</text>
<polygon fill="none" stroke="black" points="318,-146 318,-166 387,-166 387,-146 318,-146"/>
<text text-anchor="start" x="338.5" y="-151.8" font-family="Times,serif" font-size="14.00">1244</text>
<polygon fill="none" stroke="black" points="318,-126 318,-146 387,-146 387,-126 318,-126"/>
<text text-anchor="start" x="342.393" y="-131.8" font-family="Times,serif" font-size="14.00">add</text>
</g>
<!-- attr25 -->
<g id="node12" class="node"><title>attr25</title>
<polygon fill="none" stroke="black" points="296,-60 296,-81 409,-81 409,-60 296,-60"/>
<text text-anchor="start" x="349" y="-66.3" font-family="Times,serif" font-size="14.00">0</text>
<polygon fill="none" stroke="black" points="296,-40 296,-60 409,-60 409,-40 296,-40"/>
<text text-anchor="start" x="299.426" y="-45.8" font-family="Times,serif" font-size="14.00">:db.install/attribute</text>
<polygon fill="none" stroke="black" points="296,-20 296,-40 409,-40 409,-20 296,-20"/>
<text text-anchor="start" x="345.5" y="-25.8" font-family="Times,serif" font-size="14.00">24</text>
</g>
<!-- email&#45;ident&#45;&gt;attr25 -->
<g id="edge7" class="edge"><title>email&#45;ident&#45;&gt;attr25</title>
<path fill="none" stroke="black" d="M352,-122.333C352,-113.492 352,-104.42 352,-95.8549"/>
<polygon fill="black" stroke="black" points="355.5,-95.7082 352,-85.7082 348.5,-95.7083 355.5,-95.7082"/>
</g>
<!-- email&#45;cardinality -->
<g id="node8" class="node"><title>email&#45;cardinality</title>
<polygon fill="none" stroke="black" points="161,-206 161,-227 284,-227 284,-206 161,-206"/>
<text text-anchor="start" x="215.5" y="-212.3" font-family="Times,serif" font-size="14.00">24</text>
<polygon fill="none" stroke="black" points="161,-186 161,-206 284,-206 284,-186 161,-186"/>
<text text-anchor="start" x="181.679" y="-191.8" font-family="Times,serif" font-size="14.00">:db/cardinality</text>
<polygon fill="none" stroke="black" points="161,-166 161,-186 284,-186 284,-166 161,-166"/>
<text text-anchor="start" x="164.377" y="-171.8" font-family="Times,serif" font-size="14.00">:db.cardinality/many</text>
<polygon fill="none" stroke="black" points="161,-146 161,-166 284,-166 284,-146 161,-146"/>
<text text-anchor="start" x="208.5" y="-151.8" font-family="Times,serif" font-size="14.00">1246</text>
<polygon fill="none" stroke="black" points="161,-126 161,-146 284,-146 284,-126 161,-126"/>
<text text-anchor="start" x="212.393" y="-131.8" font-family="Times,serif" font-size="14.00">add</text>
</g>
<!-- email&#45;cardinality&#45;&gt;attr25 -->
<g id="edge8" class="edge"><title>email&#45;cardinality&#45;&gt;attr25</title>
<path fill="none" stroke="black" d="M278.264,-122.333C288.653,-112.423 299.346,-102.223 309.255,-92.7724"/>
<polygon fill="black" stroke="black" points="311.84,-95.143 316.661,-85.7082 307.009,-90.0777 311.84,-95.143"/>
</g>
<!-- email&#45;type -->
<g id="node9" class="node"><title>email&#45;type</title>
<polygon fill="none" stroke="black" points="32,-206 32,-227 126,-227 126,-206 32,-206"/>
<text text-anchor="start" x="72" y="-212.3" font-family="Times,serif" font-size="14.00">24</text>
<polygon fill="none" stroke="black" points="32,-186 32,-206 126,-206 126,-186 32,-186"/>
<text text-anchor="start" x="39.0576" y="-191.8" font-family="Times,serif" font-size="14.00">:db/valueType</text>
<polygon fill="none" stroke="black" points="32,-166 32,-186 126,-186 126,-166 32,-166"/>
<text text-anchor="start" x="35.2568" y="-171.8" font-family="Times,serif" font-size="14.00">:db.value/string</text>
<polygon fill="none" stroke="black" points="32,-146 32,-166 126,-166 126,-146 32,-146"/>
<text text-anchor="start" x="65" y="-151.8" font-family="Times,serif" font-size="14.00">1246</text>
<polygon fill="none" stroke="black" points="32,-126 32,-146 126,-146 126,-126 32,-126"/>
<text text-anchor="start" x="68.8931" y="-131.8" font-family="Times,serif" font-size="14.00">add</text>
</g>
<!-- email&#45;type&#45;&gt;attr25 -->
<g id="edge9" class="edge"><title>email&#45;type&#45;&gt;attr25</title>
<path fill="none" stroke="black" d="M130.434,-122.402C134.521,-119.34 138.726,-116.498 143,-114 184.443,-89.7763 236.122,-74.3368 277.722,-64.9234"/>
<polygon fill="black" stroke="black" points="278.504,-68.3352 287.522,-62.7742 277.004,-61.4977 278.504,-68.3352"/>
</g>
<!-- datom1 -->
<g id="node13" class="node"><title>datom1</title>
<polygon fill="none" stroke="black" points="1593,-400 1593,-421 1687,-421 1687,-400 1593,-400"/>
<text text-anchor="start" x="1626" y="-406.3" font-family="Times,serif" font-size="14.00" fill="red">2132</text>
<polygon fill="none" stroke="black" points="1593,-380 1593,-400 1687,-400 1687,-380 1593,-380"/>
<text text-anchor="start" x="1596.07" y="-385.8" font-family="Times,serif" font-size="14.00">:user/first&#45;name</text>
<polygon fill="none" stroke="black" points="1593,-360 1593,-380 1687,-380 1687,-360 1593,-360"/>
<text text-anchor="start" x="1627.17" y="-365.8" font-family="Times,serif" font-size="14.00">felix</text>
<polygon fill="none" stroke="black" points="1593,-340 1593,-360 1687,-360 1687,-340 1593,-340"/>
<text text-anchor="start" x="1622.5" y="-345.8" font-family="Times,serif" font-size="14.00">32142</text>
<polygon fill="none" stroke="black" points="1593,-320 1593,-340 1687,-340 1687,-320 1593,-320"/>
<text text-anchor="start" x="1629.89" y="-325.8" font-family="Times,serif" font-size="14.00">add</text>
</g>
<!-- firstname -->
<g id="node17" class="node"><title>firstname</title>
<path fill="none" stroke="black" d="M1594.62,-155C1594.62,-155 1643.38,-155 1643.38,-155 1649.38,-155 1655.38,-161 1655.38,-167 1655.38,-167 1655.38,-187 1655.38,-187 1655.38,-193 1649.38,-199 1643.38,-199 1643.38,-199 1594.62,-199 1594.62,-199 1588.62,-199 1582.62,-193 1582.62,-187 1582.62,-187 1582.62,-167 1582.62,-167 1582.62,-161 1588.62,-155 1594.62,-155"/>
<text text-anchor="middle" x="1619" y="-183.8" font-family="Times,serif" font-size="14.00">first&#45;name</text>
<polyline fill="none" stroke="black" points="1582.62,-177 1655.38,-177 "/>
<text text-anchor="middle" x="1619" y="-161.8" font-family="Times,serif" font-size="14.00">felix</text>
</g>
<!-- datom1&#45;&gt;firstname -->
<g id="edge10" class="edge"><title>datom1&#45;&gt;firstname:fnv</title>
<path fill="none" stroke="pink" d="M1664.65,-316.401C1689.52,-255.96 1716.39,-166 1656,-166"/>
</g>
<!-- datom2 -->
<g id="node14" class="node"><title>datom2</title>
<polygon fill="none" stroke="black" points="1467,-400 1467,-421 1559,-421 1559,-400 1467,-400"/>
<text text-anchor="start" x="1499" y="-406.3" font-family="Times,serif" font-size="14.00" fill="red">2132</text>
<polygon fill="none" stroke="black" points="1467,-380 1467,-400 1559,-400 1559,-380 1467,-380"/>
<text text-anchor="start" x="1470.24" y="-385.8" font-family="Times,serif" font-size="14.00">:user/last&#45;name</text>
<polygon fill="none" stroke="black" points="1467,-360 1467,-380 1559,-380 1559,-360 1467,-360"/>
<text text-anchor="start" x="1497.44" y="-365.8" font-family="Times,serif" font-size="14.00">flores</text>
<polygon fill="none" stroke="black" points="1467,-340 1467,-360 1559,-360 1559,-340 1467,-340"/>
<text text-anchor="start" x="1495.5" y="-345.8" font-family="Times,serif" font-size="14.00">32142</text>
<polygon fill="none" stroke="black" points="1467,-320 1467,-340 1559,-340 1559,-320 1467,-320"/>
<text text-anchor="start" x="1502.89" y="-325.8" font-family="Times,serif" font-size="14.00">add</text>
</g>
<!-- lastname -->
<g id="node18" class="node"><title>lastname</title>
<path fill="none" stroke="black" d="M1505.79,-155C1505.79,-155 1552.21,-155 1552.21,-155 1558.21,-155 1564.21,-161 1564.21,-167 1564.21,-167 1564.21,-187 1564.21,-187 1564.21,-193 1558.21,-199 1552.21,-199 1552.21,-199 1505.79,-199 1505.79,-199 1499.79,-199 1493.79,-193 1493.79,-187 1493.79,-187 1493.79,-167 1493.79,-167 1493.79,-161 1499.79,-155 1505.79,-155"/>
<text text-anchor="middle" x="1529" y="-183.8" font-family="Times,serif" font-size="14.00">last&#45;name</text>
<polyline fill="none" stroke="black" points="1493.79,-177 1564.21,-177 "/>
<text text-anchor="middle" x="1529" y="-161.8" font-family="Times,serif" font-size="14.00">flores</text>
</g>
<!-- datom2&#45;&gt;lastname -->
<g id="edge12" class="edge"><title>datom2&#45;&gt;lastname:lnv</title>
<path fill="none" stroke="pink" d="M1502.62,-316.401C1491.66,-255.96 1477.88,-166 1493,-166"/>
</g>
<!-- datom3 -->
<g id="node15" class="node"><title>datom3</title>
<polygon fill="none" stroke="black" points="1340,-400 1340,-421 1433,-421 1433,-400 1340,-400"/>
<text text-anchor="start" x="1372.5" y="-406.3" font-family="Times,serif" font-size="14.00" fill="red">2132</text>
<polygon fill="none" stroke="black" points="1340,-380 1340,-400 1433,-400 1433,-380 1340,-380"/>
<text text-anchor="start" x="1355.4" y="-385.8" font-family="Times,serif" font-size="14.00">:user/email</text>
<polygon fill="none" stroke="black" points="1340,-360 1340,-380 1433,-380 1433,-360 1340,-360"/>
<text text-anchor="start" x="1343.32" y="-365.8" font-family="Times,serif" font-size="14.00">felix@neo.com</text>
<polygon fill="none" stroke="black" points="1340,-340 1340,-360 1433,-360 1433,-340 1340,-340"/>
<text text-anchor="start" x="1369" y="-345.8" font-family="Times,serif" font-size="14.00">32142</text>
<polygon fill="none" stroke="black" points="1340,-320 1340,-340 1433,-340 1433,-320 1340,-320"/>
<text text-anchor="start" x="1376.39" y="-325.8" font-family="Times,serif" font-size="14.00">add</text>
</g>
<!-- email -->
<g id="node19" class="node"><title>email</title>
<path fill="none" stroke="black" d="M1276.55,-155C1276.55,-155 1463.45,-155 1463.45,-155 1469.45,-155 1475.45,-161 1475.45,-167 1475.45,-167 1475.45,-187 1475.45,-187 1475.45,-193 1469.45,-199 1463.45,-199 1463.45,-199 1276.55,-199 1276.55,-199 1270.55,-199 1264.55,-193 1264.55,-187 1264.55,-187 1264.55,-167 1264.55,-167 1264.55,-161 1270.55,-155 1276.55,-155"/>
<text text-anchor="middle" x="1370" y="-183.8" font-family="Times,serif" font-size="14.00">email</text>
<polyline fill="none" stroke="black" points="1264.55,-177 1475.45,-177 "/>
<text text-anchor="middle" x="1370" y="-161.8" font-family="Times,serif" font-size="14.00">felix@neo, felixflores@gmail.com</text>
</g>
<!-- datom3&#45;&gt;email -->
<g id="edge14" class="edge"><title>datom3&#45;&gt;email:env</title>
<path fill="none" stroke="pink" d="M1420.94,-316.283C1454.97,-260.65 1498.38,-178.607 1475,-155 1458.58,-138.422 1370,-130.666 1370,-154"/>
</g>
<!-- datom4 -->
<g id="node16" class="node"><title>datom4</title>
<polygon fill="none" stroke="black" points="1163,-400 1163,-421 1299,-421 1299,-400 1163,-400"/>
<text text-anchor="start" x="1217" y="-406.3" font-family="Times,serif" font-size="14.00" fill="red">2132</text>
<polygon fill="none" stroke="black" points="1163,-380 1163,-400 1299,-400 1299,-380 1163,-380"/>
<text text-anchor="start" x="1199.9" y="-385.8" font-family="Times,serif" font-size="14.00">:user/email</text>
<polygon fill="none" stroke="black" points="1163,-360 1163,-380 1299,-380 1299,-360 1163,-360"/>
<text text-anchor="start" x="1166.43" y="-365.8" font-family="Times,serif" font-size="14.00">felixflores@gmail.com</text>
<polygon fill="none" stroke="black" points="1163,-340 1163,-360 1299,-360 1299,-340 1163,-340"/>
<text text-anchor="start" x="1210" y="-345.8" font-family="Times,serif" font-size="14.00">543634</text>
<polygon fill="none" stroke="black" points="1163,-320 1163,-340 1299,-340 1299,-320 1163,-320"/>
<text text-anchor="start" x="1220.89" y="-325.8" font-family="Times,serif" font-size="14.00">add</text>
</g>
<!-- datom4&#45;&gt;email -->
<g id="edge16" class="edge"><title>datom4&#45;&gt;email:env</title>
<path fill="none" stroke="pink" d="M1240.84,-316.326C1242.27,-308.182 1243.7,-299.873 1245,-292 1249.61,-264.062 1235.68,-166 1264,-166"/>
</g>
<!-- firstname&#45;&gt;attr23 -->
<g id="edge11" class="edge"><title>firstname:fnl&#45;&gt;attr23</title>
<path fill="none" stroke="pink" d="M1582,-188C1565.43,-188 1584.65,-125.781 1573,-114 1518.39,-58.7586 1286.99,-51.4175 1172.58,-51.264"/>
</g>
<!-- lastname&#45;&gt;attr24 -->
<g id="edge13" class="edge"><title>lastname:lnl&#45;&gt;attr24</title>
<path fill="none" stroke="pink" d="M1493,-188C1476.43,-188 1496.05,-125.365 1484,-114 1447.63,-79.708 1084.81,-90.1333 1035,-86 943.286,-78.3901 837.423,-66.9311 771.343,-59.4575"/>
</g>
<!-- email&#45;&gt;attr25 -->
<g id="edge15" class="edge"><title>email:enl&#45;&gt;attr25</title>
<path fill="none" stroke="pink" d="M1264,-188C1221.04,-188 1262.35,-135.42 1236,-114 1209.63,-92.5641 658.863,-88.8134 625,-86 553.25,-80.0389 471.618,-69.8185 416.382,-62.1359"/>
</g>
<!-- email&#45;&gt;attr25 -->
<g id="edge17" class="edge"><title>email:enl&#45;&gt;attr25</title>
<path fill="none" stroke="pink" d="M1263.71,-187.998C1239.37,-187.59 1280.24,-135.337 1254,-114 1227.63,-92.5641 676.863,-88.8134 643,-86 565.107,-79.5286 475.567,-68.0372 416.525,-60.2227"/>
</g>
</g>
</svg>
